<?xml version="1.0" encoding="UTF-8"?>
<svg xmlns="http://www.w3.org/2000/svg" xmlns:xlink="http://www.w3.org/1999/xlink" width="375pt" height="374.999991pt" viewBox="0 0 375 374.999991" version="1.2">
<defs>
<clipPath id="clip1">
  <path d="M 111 111 L 265 111 L 265 281 L 111 281 Z M 111 111 "/>
</clipPath>
<clipPath id="clip2">
  <path d="M 91.515625 132.488281 L 242.792969 91.4375 L 283.84375 242.71875 L 132.5625 283.765625 Z M 91.515625 132.488281 "/>
</clipPath>
<clipPath id="clip3">
  <path d="M 91.515625 132.488281 L 242.792969 91.4375 L 283.84375 242.71875 L 132.5625 283.765625 Z M 91.515625 132.488281 "/>
</clipPath>
<clipPath id="clip4">
  <path d="M 91.515625 132.488281 L 243.078125 91.359375 L 284.203125 242.921875 L 132.640625 284.050781 Z M 91.515625 132.488281 "/>
</clipPath>
<clipPath id="clip5">
  <path d="M 125 124 L 251 124 L 251 257 L 125 257 Z M 125 124 "/>
</clipPath>
<clipPath id="clip6">
  <path d="M 91.515625 132.488281 L 242.792969 91.4375 L 283.84375 242.71875 L 132.5625 283.765625 Z M 91.515625 132.488281 "/>
</clipPath>
<clipPath id="clip7">
  <path d="M 91.515625 132.488281 L 242.792969 91.4375 L 283.84375 242.71875 L 132.5625 283.765625 Z M 91.515625 132.488281 "/>
</clipPath>
<clipPath id="clip8">
  <path d="M 91.515625 132.488281 L 243.078125 91.359375 L 284.203125 242.921875 L 132.640625 284.050781 Z M 91.515625 132.488281 "/>
</clipPath>
<clipPath id="clip9">
  <path d="M 147 159 L 230 159 L 230 217 L 147 217 Z M 147 159 "/>
</clipPath>
<clipPath id="clip10">
  <path d="M 91.515625 132.488281 L 242.792969 91.4375 L 283.84375 242.71875 L 132.5625 283.765625 Z M 91.515625 132.488281 "/>
</clipPath>
<clipPath id="clip11">
  <path d="M 91.515625 132.488281 L 242.792969 91.4375 L 283.84375 242.71875 L 132.5625 283.765625 Z M 91.515625 132.488281 "/>
</clipPath>
<clipPath id="clip12">
  <path d="M 91.515625 132.488281 L 243.078125 91.359375 L 284.203125 242.921875 L 132.640625 284.050781 Z M 91.515625 132.488281 "/>
</clipPath>
<clipPath id="clip13">
  <path d="M 109 109 L 267 109 L 267 283 L 109 283 Z M 109 109 "/>
</clipPath>
<clipPath id="clip14">
  <path d="M 91.515625 132.488281 L 242.792969 91.4375 L 283.84375 242.71875 L 132.5625 283.765625 Z M 91.515625 132.488281 "/>
</clipPath>
<clipPath id="clip15">
  <path d="M 91.515625 132.488281 L 242.792969 91.4375 L 283.84375 242.71875 L 132.5625 283.765625 Z M 91.515625 132.488281 "/>
</clipPath>
<clipPath id="clip16">
  <path d="M 91.515625 132.488281 L 243.078125 91.359375 L 284.203125 242.921875 L 132.640625 284.050781 Z M 91.515625 132.488281 "/>
</clipPath>
<clipPath id="clip17">
  <path d="M 145 158 L 231 158 L 231 218 L 145 218 Z M 145 158 "/>
</clipPath>
<clipPath id="clip18">
  <path d="M 91.515625 132.488281 L 242.792969 91.4375 L 283.84375 242.71875 L 132.5625 283.765625 Z M 91.515625 132.488281 "/>
</clipPath>
<clipPath id="clip19">
  <path d="M 91.515625 132.488281 L 242.792969 91.4375 L 283.84375 242.71875 L 132.5625 283.765625 Z M 91.515625 132.488281 "/>
</clipPath>
<clipPath id="clip20">
  <path d="M 91.515625 132.488281 L 243.078125 91.359375 L 284.203125 242.921875 L 132.640625 284.050781 Z M 91.515625 132.488281 "/>
</clipPath>
<clipPath id="clip21">
  <path d="M 125 124 L 251 124 L 251 258 L 125 258 Z M 125 124 "/>
</clipPath>
<clipPath id="clip22">
  <path d="M 91.515625 132.488281 L 242.792969 91.4375 L 283.84375 242.71875 L 132.5625 283.765625 Z M 91.515625 132.488281 "/>
</clipPath>
<clipPath id="clip23">
  <path d="M 91.515625 132.488281 L 242.792969 91.4375 L 283.84375 242.71875 L 132.5625 283.765625 Z M 91.515625 132.488281 "/>
</clipPath>
<clipPath id="clip24">
  <path d="M 91.515625 132.488281 L 243.078125 91.359375 L 284.203125 242.921875 L 132.640625 284.050781 Z M 91.515625 132.488281 "/>
</clipPath>
<clipPath id="clip25">
  <path d="M 194 125 L 215 125 L 215 133 L 194 133 Z M 194 125 "/>
</clipPath>
<clipPath id="clip26">
  <path d="M 91.515625 132.488281 L 242.792969 91.4375 L 283.84375 242.71875 L 132.5625 283.765625 Z M 91.515625 132.488281 "/>
</clipPath>
<clipPath id="clip27">
  <path d="M 91.515625 132.488281 L 242.792969 91.4375 L 283.84375 242.71875 L 132.5625 283.765625 Z M 91.515625 132.488281 "/>
</clipPath>
<clipPath id="clip28">
  <path d="M 91.515625 132.488281 L 243.078125 91.359375 L 284.203125 242.921875 L 132.640625 284.050781 Z M 91.515625 132.488281 "/>
</clipPath>
<clipPath id="clip29">
  <path d="M 223 185 L 240.566406 185 L 240.566406 200 L 223 200 Z M 223 185 "/>
</clipPath>
<clipPath id="clip30">
  <path d="M 227 189 L 240.566406 189 L 240.566406 196 L 227 196 Z M 227 189 "/>
</clipPath>
<clipPath id="clip31">
  <path d="M 169 196 L 190 196 L 190 222.125 L 169 222.125 Z M 169 196 "/>
</clipPath>
<clipPath id="clip32">
  <path d="M 169 208 L 182 208 L 182 222.125 L 169 222.125 Z M 169 208 "/>
</clipPath>
<clipPath id="clip33">
  <path d="M 173 209 L 185 209 L 185 222.125 L 173 222.125 Z M 173 209 "/>
</clipPath>
<clipPath id="clip34">
  <path d="M 139.316406 152.539062 L 188 152.539062 L 188 211 L 139.316406 211 Z M 139.316406 152.539062 "/>
</clipPath>
<clipPath id="clip35">
  <path d="M 139.316406 168 L 163 168 L 163 185 L 139.316406 185 Z M 139.316406 168 "/>
</clipPath>
<clipPath id="clip36">
  <path d="M 184 195 L 207 195 L 207 222.125 L 184 222.125 Z M 184 195 "/>
</clipPath>
<clipPath id="clip37">
  <path d="M 185 210 L 198 210 L 198 222.125 L 185 222.125 Z M 185 210 "/>
</clipPath>
<clipPath id="clip38">
  <path d="M 189 211 L 202 211 L 202 222.125 L 189 222.125 Z M 189 211 "/>
</clipPath>
<clipPath id="clip39">
  <path d="M 192 214 L 198 214 L 198 222.125 L 192 222.125 Z M 192 214 "/>
</clipPath>
<clipPath id="clip40">
  <path d="M 193 210 L 206 210 L 206 222.125 L 193 222.125 Z M 193 210 "/>
</clipPath>
<clipPath id="clip41">
  <path d="M 207 192 L 230 192 L 230 222.125 L 207 222.125 Z M 207 192 "/>
</clipPath>
<clipPath id="clip42">
  <path d="M 208 207 L 221 207 L 221 222.125 L 208 222.125 Z M 208 207 "/>
</clipPath>
<clipPath id="clip43">
  <path d="M 212 208 L 225 208 L 225 222.125 L 212 222.125 Z M 212 208 "/>
</clipPath>
<clipPath id="clip44">
  <path d="M 216 207 L 229 207 L 229 222.125 L 216 222.125 Z M 216 207 "/>
</clipPath>
</defs>
<g id="surface1">
<g clip-path="url(#clip1)" clip-rule="nonzero">
<g clip-path="url(#clip2)" clip-rule="nonzero">
<g clip-path="url(#clip3)" clip-rule="nonzero">
<g clip-path="url(#clip4)" clip-rule="nonzero">
<path style=" stroke:none;fill-rule:nonzero;fill:rgb(100%,100%,100%);fill-opacity:1;" d="M 168.019531 114.164062 C 127.421875 125.179688 103.4375 167.023438 114.457031 207.621094 C 118.042969 220.835938 124.910156 232.277344 133.917969 241.335938 L 133.738281 278.371094 C 133.730469 280.113281 135.621094 281.199219 137.121094 280.308594 L 168.984375 261.433594 C 181.355469 264.628906 194.699219 264.773438 207.914062 261.1875 C 248.515625 250.171875 272.496094 208.328125 261.476562 167.730469 C 250.460938 127.128906 208.621094 103.148438 168.019531 114.164062 Z M 168.019531 114.164062 "/>
</g>
</g>
</g>
</g>
<g clip-path="url(#clip5)" clip-rule="nonzero">
<g clip-path="url(#clip6)" clip-rule="nonzero">
<g clip-path="url(#clip7)" clip-rule="nonzero">
<g clip-path="url(#clip8)" clip-rule="nonzero">
<path style=" stroke:none;fill-rule:nonzero;fill:rgb(37.649536%,74.508667%,57.249451%);fill-opacity:1;" d="M 171.539062 127.136719 C 138.105469 136.210938 118.355469 170.667969 127.429688 204.101562 C 131.019531 217.339844 138.597656 228.417969 148.507812 236.425781 L 148.40625 256.699219 L 165.851562 246.363281 C 177.769531 250.867188 191.160156 251.804688 204.394531 248.214844 C 237.828125 239.140625 257.578125 204.683594 248.503906 171.25 C 239.433594 137.8125 204.976562 118.066406 171.539062 127.136719 Z M 171.539062 127.136719 "/>
</g>
</g>
</g>
</g>
<g clip-path="url(#clip9)" clip-rule="nonzero">
<g clip-path="url(#clip10)" clip-rule="nonzero">
<g clip-path="url(#clip11)" clip-rule="nonzero">
<g clip-path="url(#clip12)" clip-rule="nonzero">
<path style=" stroke:none;fill-rule:nonzero;fill:rgb(100%,100%,100%);fill-opacity:1;" d="M 162.203125 162.050781 C 160.082031 159.433594 158.675781 159.753906 157.40625 160.050781 C 156.367188 160.285156 155.199219 160.605469 154.027344 160.921875 C 152.871094 161.234375 151.082031 162.191406 149.960938 164.414062 C 148.824219 166.625 145.453125 172.160156 147.828125 180.917969 C 150.199219 189.65625 158.800781 196.410156 159.988281 197.359375 C 161.1875 198.292969 177.492188 213.769531 197.261719 216.058594 C 213.695312 217.949219 216.398438 215.960938 219.527344 214.796875 C 222.667969 213.617188 228.753906 207.671875 229.085938 203.117188 C 229.417969 198.578125 228.453125 195.019531 227.820312 194.390625 C 227.183594 193.765625 225.894531 193.640625 223.886719 193.226562 C 221.894531 192.808594 212.101562 190.859375 210.320312 190.699219 C 208.554688 190.546875 207.304688 190.574219 206.617188 192.660156 C 205.925781 194.75 203.648438 199.675781 202.941406 201.140625 C 202.238281 202.605469 201.265625 203.027344 199.265625 202.625 C 197.273438 202.207031 191.113281 201.867188 182.761719 197.625 C 176.265625 194.328125 171.160156 189.472656 169.648438 187.964844 C 168.140625 186.472656 168.792969 185.257812 169.429688 184.125 C 170.011719 183.121094 170.628906 181.566406 171.226562 180.292969 C 171.8125 179.015625 171.902344 178.207031 172.175781 176.859375 C 172.429688 175.515625 171.859375 174.554688 171.183594 173.78125 C 170.511719 173 164.714844 165.140625 162.203125 162.050781 Z M 162.203125 162.050781 "/>
</g>
</g>
</g>
</g>
<g clip-path="url(#clip13)" clip-rule="nonzero">
<g clip-path="url(#clip14)" clip-rule="nonzero">
<g clip-path="url(#clip15)" clip-rule="nonzero">
<g clip-path="url(#clip16)" clip-rule="nonzero">
<path style=" stroke:none;fill-rule:nonzero;fill:rgb(12.159729%,12.939453%,16.859436%);fill-opacity:1;" d="M 137.132812 282.71875 C 136.007812 283.023438 134.804688 282.875 133.753906 282.269531 C 132.332031 281.457031 131.492188 279.996094 131.5 278.363281 L 131.675781 242.25 C 122.460938 232.757812 115.765625 221.007812 112.292969 208.210938 C 100.972656 166.484375 125.707031 123.324219 167.433594 112.003906 C 209.160156 100.679688 252.316406 125.414062 263.640625 167.140625 C 274.960938 208.867188 250.226562 252.027344 208.5 263.347656 C 195.703125 266.820312 182.179688 266.984375 169.332031 263.832031 L 138.261719 282.238281 C 137.902344 282.453125 137.523438 282.613281 137.132812 282.71875 Z M 168.398438 259.273438 C 168.769531 259.171875 169.167969 259.167969 169.546875 259.265625 C 181.910156 262.460938 194.976562 262.375 207.328125 259.023438 C 246.667969 248.351562 269.992188 207.65625 259.316406 168.316406 C 248.640625 128.972656 207.949219 105.652344 168.605469 116.328125 C 129.265625 127 105.941406 167.695312 116.617188 207.035156 C 119.96875 219.386719 126.5 230.703125 135.507812 239.757812 C 135.929688 240.179688 136.164062 240.75 136.160156 241.347656 L 135.980469 278.386719 L 167.84375 259.507812 C 168.019531 259.402344 168.207031 259.324219 168.398438 259.273438 Z M 168.398438 259.273438 "/>
</g>
</g>
</g>
</g>
<g clip-path="url(#clip17)" clip-rule="nonzero">
<g clip-path="url(#clip18)" clip-rule="nonzero">
<g clip-path="url(#clip19)" clip-rule="nonzero">
<g clip-path="url(#clip20)" clip-rule="nonzero">
<path style=" stroke:none;fill-rule:nonzero;fill:rgb(12.159729%,12.939453%,16.859436%);fill-opacity:1;" d="M 216.316406 217.144531 C 213.261719 217.972656 208.292969 218.453125 197.136719 217.171875 C 185.183594 215.789062 171.929688 209.222656 159.824219 198.691406 C 159.566406 198.46875 159.390625 198.3125 159.300781 198.246094 C 156.203125 195.769531 148.941406 189.289062 146.75 181.207031 C 144.402344 172.554688 147.445312 166.792969 148.742188 164.328125 L 148.964844 163.902344 C 150.425781 161.007812 152.785156 160.097656 153.734375 159.839844 C 154.921875 159.519531 156.105469 159.195312 157.160156 158.960938 C 158.84375 158.566406 160.699219 158.425781 163.070312 161.347656 C 164.5625 163.179688 167.144531 166.605469 169.21875 169.355469 C 170.535156 171.101562 171.78125 172.753906 172.03125 173.042969 C 172.742188 173.859375 173.640625 175.164062 173.277344 177.066406 L 173.160156 177.683594 C 172.957031 178.734375 172.796875 179.566406 172.25 180.757812 C 172.050781 181.183594 171.855469 181.628906 171.65625 182.074219 C 171.246094 183.003906 170.820312 183.960938 170.402344 184.6875 C 169.773438 185.800781 169.550781 186.292969 170.441406 187.167969 C 172.25 188.972656 177.113281 193.503906 183.269531 196.628906 C 190.074219 200.085938 195.300781 200.875 198.109375 201.300781 C 198.6875 201.386719 199.152344 201.457031 199.496094 201.53125 C 201.167969 201.867188 201.519531 201.519531 201.933594 200.65625 C 202.671875 199.125 204.898438 194.296875 205.554688 192.3125 C 206.5625 189.253906 208.882812 189.453125 210.414062 189.585938 C 212.359375 189.757812 222.554688 191.804688 224.117188 192.132812 L 225.199219 192.34375 C 226.738281 192.640625 227.847656 192.851562 228.605469 193.597656 C 229.640625 194.621094 230.527344 198.730469 230.199219 203.203125 C 229.816406 208.414062 223.210938 214.609375 219.921875 215.847656 C 219.621094 215.960938 219.335938 216.074219 219.039062 216.195312 C 218.25 216.507812 217.402344 216.847656 216.316406 217.144531 Z M 154.382812 161.984375 C 153.839844 162.128906 152.09375 162.671875 150.964844 164.914062 L 150.726562 165.371094 C 149.449219 167.789062 146.796875 172.820312 148.914062 180.621094 C 150.933594 188.0625 157.777344 194.15625 160.625 196.433594 C 160.78125 196.554688 160.988281 196.734375 161.296875 197 C 173.0625 207.242188 185.882812 213.613281 197.394531 214.945312 C 211.957031 216.621094 215.421875 215.230469 218.207031 214.109375 C 218.519531 213.980469 218.828125 213.859375 219.136719 213.746094 C 221.859375 212.71875 227.667969 207.113281 227.96875 203.035156 C 228.277344 198.835938 227.394531 195.660156 227.007812 195.160156 C 226.761719 194.921875 225.847656 194.746094 224.78125 194.542969 L 223.660156 194.320312 C 221.335938 193.832031 211.867188 191.957031 210.21875 191.8125 C 208.507812 191.667969 208.097656 191.757812 207.679688 193.011719 C 206.9375 195.265625 204.515625 200.460938 203.953125 201.625 C 202.753906 204.117188 200.699219 204.054688 199.046875 203.722656 C 198.722656 203.65625 198.296875 203.589844 197.777344 203.511719 C 195.054688 203.101562 189.386719 202.246094 182.261719 198.621094 C 175.816406 195.351562 170.746094 190.632812 168.867188 188.753906 C 166.730469 186.640625 167.855469 184.644531 168.460938 183.574219 C 168.835938 182.917969 169.226562 182.039062 169.613281 181.164062 C 169.816406 180.703125 170.019531 180.242188 170.21875 179.8125 C 170.652344 178.875 170.777344 178.230469 170.964844 177.253906 L 171.085938 176.632812 C 171.226562 175.894531 171.011719 175.273438 170.347656 174.507812 C 170.054688 174.175781 169.101562 172.910156 167.433594 170.703125 C 165.371094 167.964844 162.800781 164.558594 161.335938 162.757812 L 161.335938 162.753906 C 159.648438 160.671875 158.773438 160.878906 157.664062 161.140625 C 156.648438 161.367188 155.519531 161.675781 154.382812 161.984375 Z M 154.382812 161.984375 "/>
</g>
</g>
</g>
</g>
<g clip-path="url(#clip21)" clip-rule="nonzero">
<g clip-path="url(#clip22)" clip-rule="nonzero">
<g clip-path="url(#clip23)" clip-rule="nonzero">
<g clip-path="url(#clip24)" clip-rule="nonzero">
<path style=" stroke:none;fill-rule:nonzero;fill:rgb(12.159729%,12.939453%,16.859436%);fill-opacity:1;" d="M 204.394531 248.214844 C 192.078125 251.558594 179.234375 251.085938 167.214844 246.855469 L 148.980469 257.660156 C 148.628906 257.871094 148.199219 257.867188 147.851562 257.667969 C 147.503906 257.46875 147.285156 257.09375 147.289062 256.691406 L 147.390625 235.5 C 137.667969 227.265625 130.769531 216.421875 127.429688 204.101562 C 118.371094 170.722656 138.160156 136.195312 171.539062 127.136719 C 177.105469 125.628906 182.871094 124.890625 188.671875 124.957031 C 189.292969 124.960938 189.789062 125.46875 189.785156 126.085938 C 189.777344 126.703125 189.261719 127.203125 188.652344 127.195312 C 183.054688 127.136719 177.492188 127.84375 172.125 129.300781 C 139.9375 138.035156 120.855469 171.328125 129.589844 203.515625 C 132.859375 215.558594 139.648438 226.140625 149.230469 234.117188 C 149.488281 234.332031 149.636719 234.648438 149.632812 234.984375 L 149.535156 254.726562 L 166.523438 244.664062 C 166.804688 244.488281 167.160156 244.460938 167.472656 244.570312 C 179.203125 248.808594 191.765625 249.320312 203.808594 246.050781 C 235.996094 237.316406 255.078125 204.023438 246.34375 171.835938 C 242.128906 156.308594 232.132812 143.332031 218.195312 135.285156 C 217.660156 134.976562 217.472656 134.289062 217.785156 133.757812 C 218.09375 133.222656 218.777344 133.035156 219.3125 133.34375 C 233.769531 141.6875 244.136719 155.148438 248.503906 171.25 C 257.5625 204.628906 237.773438 239.15625 204.394531 248.214844 Z M 204.394531 248.214844 "/>
</g>
</g>
</g>
</g>
<g clip-path="url(#clip25)" clip-rule="nonzero">
<g clip-path="url(#clip26)" clip-rule="nonzero">
<g clip-path="url(#clip27)" clip-rule="nonzero">
<g clip-path="url(#clip28)" clip-rule="nonzero">
<path style=" stroke:none;fill-rule:nonzero;fill:rgb(12.159729%,12.939453%,16.859436%);fill-opacity:1;" d="M 203.394531 129.042969 C 203.214844 129.09375 203.019531 129.097656 202.824219 129.050781 C 200.421875 128.4375 197.996094 127.972656 195.613281 127.667969 C 195 127.589844 194.570312 127.03125 194.644531 126.414062 C 194.722656 125.804688 195.285156 125.363281 195.898438 125.445312 C 198.371094 125.765625 200.890625 126.246094 203.378906 126.878906 C 203.976562 127.03125 204.339844 127.640625 204.1875 128.242188 C 204.085938 128.644531 203.769531 128.941406 203.394531 129.042969 Z M 213.652344 132.625 C 213.410156 132.6875 213.144531 132.675781 212.898438 132.5625 C 211.257812 131.820312 209.539062 131.136719 207.785156 130.527344 C 207.199219 130.324219 206.894531 129.6875 207.09375 129.101562 C 207.296875 128.519531 207.941406 128.214844 208.519531 128.410156 C 210.335938 129.039062 212.121094 129.75 213.820312 130.519531 C 214.382812 130.777344 214.632812 131.441406 214.375 132.003906 C 214.234375 132.324219 213.960938 132.539062 213.652344 132.625 Z M 213.652344 132.625 "/>
</g>
</g>
</g>
</g>
<path style=" stroke:none;fill-rule:nonzero;fill:rgb(37.649536%,74.508667%,57.249451%);fill-opacity:1;" d="M 188.871094 130.316406 C 187.246094 130.332031 185.628906 130.429688 184.015625 130.605469 C 182.402344 130.777344 180.800781 131.03125 179.210938 131.363281 C 177.625 131.699219 176.054688 132.105469 174.507812 132.59375 C 172.957031 133.078125 171.4375 133.640625 169.945312 134.277344 C 168.453125 134.914062 166.992188 135.621094 165.570312 136.398438 C 164.144531 137.179688 162.761719 138.023438 161.421875 138.941406 C 160.082031 139.855469 158.789062 140.832031 157.546875 141.875 C 156.300781 142.917969 155.109375 144.019531 153.972656 145.175781 C 152.839844 146.335938 151.761719 147.546875 150.742188 148.8125 C 149.726562 150.078125 148.773438 151.386719 147.886719 152.746094 C 146.996094 154.105469 146.175781 155.503906 145.425781 156.941406 C 144.675781 158.378906 143.996094 159.851562 143.390625 161.359375 C 142.785156 162.863281 142.253906 164.394531 141.796875 165.953125 C 141.339844 167.511719 140.964844 169.085938 140.664062 170.683594 C 140.363281 172.277344 140.140625 173.882812 139.996094 175.5 C 139.851562 177.117188 139.789062 178.734375 139.804688 180.359375 C 139.820312 181.980469 139.917969 183.601562 140.09375 185.214844 C 140.265625 186.828125 140.519531 188.429688 140.851562 190.015625 C 141.183594 191.605469 141.59375 193.171875 142.082031 194.722656 C 142.566406 196.269531 143.128906 197.792969 143.765625 199.285156 C 144.398438 200.777344 145.105469 202.238281 145.886719 203.660156 C 146.664062 205.082031 147.511719 206.464844 148.425781 207.804688 C 149.34375 209.148438 150.320312 210.441406 151.363281 211.683594 C 152.40625 212.929688 153.503906 214.117188 154.664062 215.253906 C 155.824219 216.390625 157.035156 217.46875 158.300781 218.484375 C 159.5625 219.503906 160.875 220.457031 162.234375 221.34375 C 163.59375 222.230469 164.992188 223.050781 166.429688 223.800781 C 167.867188 224.554688 169.339844 225.230469 170.847656 225.839844 C 172.351562 226.445312 173.882812 226.976562 175.441406 227.433594 C 177 227.886719 178.574219 228.265625 180.167969 228.566406 C 181.765625 228.867188 183.371094 229.089844 184.988281 229.234375 C 186.605469 229.375 188.222656 229.441406 189.847656 229.425781 C 191.46875 229.40625 193.085938 229.3125 194.699219 229.136719 C 196.316406 228.960938 197.914062 228.707031 199.503906 228.375 C 201.09375 228.042969 202.660156 227.636719 204.210938 227.148438 C 205.757812 226.660156 207.277344 226.101562 208.773438 225.464844 C 210.265625 224.828125 211.722656 224.121094 213.148438 223.34375 C 214.570312 222.5625 215.953125 221.714844 217.292969 220.800781 C 218.636719 219.886719 219.925781 218.910156 221.171875 217.867188 C 222.417969 216.824219 223.605469 215.722656 224.742188 214.566406 C 225.878906 213.40625 226.957031 212.195312 227.972656 210.929688 C 228.988281 209.664062 229.941406 208.355469 230.832031 206.996094 C 231.71875 205.636719 232.539062 204.238281 233.289062 202.800781 C 234.042969 201.359375 234.71875 199.890625 235.324219 198.382812 C 235.933594 196.878906 236.464844 195.347656 236.917969 193.789062 C 237.375 192.230469 237.753906 190.65625 238.054688 189.058594 C 238.355469 187.464844 238.578125 185.859375 238.71875 184.242188 C 238.863281 182.625 238.925781 181.007812 238.910156 179.382812 C 238.894531 177.761719 238.800781 176.140625 238.625 174.527344 C 238.449219 172.914062 238.195312 171.3125 237.863281 169.726562 C 237.53125 168.136719 237.121094 166.566406 236.636719 165.019531 C 236.148438 163.472656 235.589844 161.949219 234.953125 160.457031 C 234.316406 158.964844 233.609375 157.503906 232.832031 156.082031 C 232.050781 154.65625 231.203125 153.277344 230.289062 151.933594 C 229.375 150.59375 228.394531 149.300781 227.355469 148.058594 C 226.3125 146.8125 225.210938 145.621094 224.054688 144.488281 C 222.894531 143.351562 221.683594 142.273438 220.417969 141.257812 C 219.152344 140.238281 217.839844 139.285156 216.484375 138.398438 C 215.125 137.507812 213.726562 136.691406 212.289062 135.9375 C 210.847656 135.1875 209.375 134.507812 207.871094 133.902344 C 206.367188 133.296875 204.832031 132.765625 203.277344 132.308594 C 201.71875 131.855469 200.140625 131.476562 198.546875 131.175781 C 196.953125 130.875 195.347656 130.652344 193.730469 130.507812 C 192.113281 130.367188 190.492188 130.300781 188.871094 130.316406 Z M 188.871094 130.316406 "/>
<path style=" stroke:none;fill-rule:nonzero;fill:rgb(100%,100%,100%);fill-opacity:1;" d="M 229.839844 190.261719 C 234.363281 192.777344 239.519531 190.71875 239.519531 190.71875 C 239.519531 190.71875 237.734375 193.789062 233.085938 195.152344 C 228.433594 196.515625 225.707031 187.96875 229.839844 190.261719 "/>
<g clip-path="url(#clip29)" clip-rule="nonzero">
<path style="fill:none;stroke-width:10;stroke-linecap:butt;stroke-linejoin:miter;stroke:rgb(13.729858%,12.159729%,12.548828%);stroke-opacity:1;stroke-miterlimit:10;" d="M 3502.590894 2036.006736 C 3660.517505 1947.581034 3840.537475 2019.941818 3840.537475 2019.941818 C 3840.537475 2019.941818 3778.212379 1912.018524 3615.921648 1864.098384 C 3453.494539 1816.178244 3358.302161 2116.605939 3502.590894 2036.006736 Z M 3502.590894 2036.006736 " transform="matrix(0.0286427,0,0,-0.028449,129.516339,248.184125)"/>
</g>
<g clip-path="url(#clip30)" clip-rule="nonzero">
<path style=" stroke:none;fill-rule:nonzero;fill:rgb(13.729858%,12.159729%,12.548828%);fill-opacity:1;" d="M 228.644531 190.34375 C 228.519531 190.34375 228.285156 190.34375 228.285156 190.898438 C 228.285156 192.277344 229.847656 194.828125 232.078125 194.828125 C 232.363281 194.828125 232.65625 194.785156 232.949219 194.699219 C 235.589844 193.925781 237.273438 192.570312 238.203125 191.601562 C 237.363281 191.800781 236.226562 191.984375 234.941406 191.984375 C 232.964844 191.984375 231.171875 191.542969 229.609375 190.675781 C 229.113281 190.398438 228.808594 190.34375 228.644531 190.34375 Z M 232.078125 195.773438 C 229.371094 195.773438 227.335938 192.816406 227.335938 190.898438 C 227.335938 189.972656 227.835938 189.398438 228.644531 189.398438 C 229.050781 189.398438 229.53125 189.550781 230.070312 189.851562 C 231.492188 190.640625 233.132812 191.042969 234.941406 191.042969 C 237.402344 191.042969 239.320312 190.289062 239.34375 190.28125 L 240.617188 189.777344 L 239.929688 190.957031 C 239.851562 191.089844 237.996094 194.207031 233.21875 195.605469 C 232.839844 195.714844 232.457031 195.773438 232.078125 195.773438 "/>
</g>
<path style=" stroke:none;fill-rule:nonzero;fill:rgb(100%,100%,100%);fill-opacity:1;" d="M 184.097656 217.933594 C 182.058594 219.222656 177.207031 219.257812 174.523438 217.933594 C 171.839844 216.609375 174.523438 200.402344 174.523438 200.402344 L 184.097656 200.402344 C 184.097656 200.402344 186.136719 216.640625 184.097656 217.933594 "/>
<g clip-path="url(#clip31)" clip-rule="nonzero">
<path style="fill:none;stroke-width:10;stroke-linecap:butt;stroke-linejoin:miter;stroke:rgb(13.729858%,12.159729%,12.548828%);stroke-opacity:1;stroke-miterlimit:10;" d="M 1905.595553 1063.324017 C 1834.405837 1018.01271 1665.023411 1016.776947 1571.331199 1063.324017 C 1477.638987 1109.871087 1571.331199 1679.557789 1571.331199 1679.557789 L 1905.595553 1679.557789 C 1905.595553 1679.557789 1976.785268 1108.772631 1905.595553 1063.324017 Z M 1905.595553 1063.324017 " transform="matrix(0.0286427,0,0,-0.028449,129.516339,248.184125)"/>
</g>
<path style=" stroke:none;fill-rule:nonzero;fill:rgb(13.729858%,12.159729%,12.548828%);fill-opacity:1;" d="M 174.929688 200.871094 C 173.871094 207.445312 173.132812 216.71875 174.734375 217.511719 C 175.933594 218.101562 177.675781 218.441406 179.515625 218.441406 C 181.328125 218.441406 182.945312 218.101562 183.839844 217.535156 C 184.925781 216.851562 184.601562 208.4375 183.675781 200.871094 Z M 179.515625 219.386719 C 177.535156 219.386719 175.636719 219.007812 174.3125 218.355469 C 173.46875 217.9375 172.417969 216.480469 173.042969 208.632812 C 173.375 204.445312 174.046875 200.363281 174.054688 200.324219 L 174.121094 199.929688 L 184.515625 199.929688 L 184.570312 200.34375 C 184.574219 200.382812 185.082031 204.46875 185.335938 208.65625 C 185.800781 216.382812 185.054688 217.886719 184.351562 218.332031 C 183.292969 219 181.53125 219.386719 179.515625 219.386719 "/>
<path style=" stroke:none;fill-rule:nonzero;fill:rgb(100%,100%,100%);fill-opacity:1;" d="M 176.394531 218.574219 C 176.394531 218.574219 174.28125 218.035156 174.015625 217.410156 C 173.75 216.785156 174.421875 216.363281 174.421875 214.273438 C 174.421875 212.179688 177.308594 212.355469 177.308594 214.273438 C 177.308594 216.1875 176.394531 218.574219 176.394531 218.574219 "/>
<g clip-path="url(#clip32)" clip-rule="nonzero">
<path style="fill:none;stroke-width:10;stroke-linecap:butt;stroke-linejoin:miter;stroke:rgb(13.729858%,12.159729%,12.548828%);stroke-opacity:1;stroke-miterlimit:10;" d="M 1636.656628 1040.805671 C 1636.656628 1040.805671 1562.875716 1059.754035 1553.60196 1081.723154 C 1544.328204 1103.692272 1567.785351 1118.521427 1567.785351 1191.980667 C 1567.785351 1265.577214 1668.569259 1259.398399 1668.569259 1191.980667 C 1668.569259 1124.700242 1636.656628 1040.805671 1636.656628 1040.805671 Z M 1636.656628 1040.805671 " transform="matrix(0.0286427,0,0,-0.028449,129.516339,248.184125)"/>
</g>
<path style=" stroke:none;fill-rule:nonzero;fill:rgb(13.729858%,12.159729%,12.548828%);fill-opacity:1;" d="M 175.820312 213.242188 C 175.371094 213.242188 174.894531 213.511719 174.894531 214.273438 C 174.894531 215.476562 174.683594 216.175781 174.539062 216.636719 C 174.429688 217.003906 174.40625 217.109375 174.453125 217.226562 C 174.558594 217.414062 175.289062 217.75 176.09375 217.996094 C 176.34375 217.253906 176.835938 215.625 176.835938 214.273438 C 176.835938 213.5625 176.308594 213.242188 175.820312 213.242188 Z M 176.6875 219.136719 L 176.277344 219.03125 C 175.570312 218.851562 173.902344 218.351562 173.578125 217.59375 C 173.390625 217.152344 173.5 216.785156 173.628906 216.363281 C 173.761719 215.929688 173.945312 215.335938 173.945312 214.273438 C 173.945312 212.914062 174.917969 212.296875 175.820312 212.296875 C 176.773438 212.296875 177.785156 212.988281 177.785156 214.273438 C 177.785156 216.253906 176.875 218.640625 176.839844 218.742188 L 176.6875 219.136719 "/>
<path style=" stroke:none;fill-rule:nonzero;fill:rgb(100%,100%,100%);fill-opacity:1;" d="M 180.535156 218.914062 C 180.097656 219.089844 178.058594 219.074219 177.542969 218.746094 C 176.914062 218.347656 177.777344 217.015625 177.777344 214.925781 C 177.777344 212.835938 180.667969 213.007812 180.667969 214.925781 C 180.667969 216.84375 180.976562 218.734375 180.535156 218.914062 "/>
<g clip-path="url(#clip33)" clip-rule="nonzero">
<path style="fill:none;stroke-width:10;stroke-linecap:butt;stroke-linejoin:miter;stroke:rgb(13.729858%,12.159729%,12.548828%);stroke-opacity:1;stroke-miterlimit:10;" d="M 1781.218119 1028.859962 C 1765.943697 1022.681148 1694.753982 1023.230376 1676.751985 1034.626856 C 1654.795003 1048.769476 1684.934711 1095.59116 1684.934711 1169.050399 C 1684.934711 1242.509639 1785.854997 1236.468132 1785.854997 1169.050399 C 1785.854997 1101.632667 1796.628919 1035.176084 1781.218119 1028.859962 Z M 1781.218119 1028.859962 " transform="matrix(0.0286427,0,0,-0.028449,129.516339,248.184125)"/>
</g>
<path style=" stroke:none;fill-rule:nonzero;fill:rgb(13.729858%,12.159729%,12.548828%);fill-opacity:1;" d="M 179.175781 213.894531 C 178.730469 213.894531 178.253906 214.164062 178.253906 214.925781 C 178.253906 215.90625 178.078125 216.707031 177.9375 217.347656 C 177.855469 217.722656 177.742188 218.238281 177.804688 218.359375 C 177.929688 218.429688 178.53125 218.554688 179.410156 218.554688 C 179.851562 218.554688 180.125 218.523438 180.257812 218.5 C 180.328125 218.203125 180.289062 217.386719 180.253906 216.722656 C 180.222656 216.171875 180.191406 215.550781 180.191406 214.925781 C 180.191406 214.21875 179.664062 213.894531 179.175781 213.894531 Z M 179.410156 219.5 C 178.941406 219.5 177.789062 219.464844 177.285156 219.144531 C 176.660156 218.746094 176.820312 218.003906 177.007812 217.148438 C 177.140625 216.550781 177.300781 215.804688 177.300781 214.925781 C 177.300781 213.566406 178.273438 212.949219 179.175781 212.949219 C 180.128906 212.949219 181.140625 213.640625 181.140625 214.925781 C 181.140625 215.523438 181.175781 216.136719 181.203125 216.675781 C 181.28125 218.238281 181.328125 219.101562 180.714844 219.351562 C 180.398438 219.480469 179.761719 219.5 179.410156 219.5 "/>
<path style=" stroke:none;fill-rule:nonzero;fill:rgb(100%,100%,100%);fill-opacity:1;" d="M 230.324219 192.855469 C 230.324219 196.4375 213.304688 209.214844 197.589844 209.214844 C 181.875 209.214844 169.136719 206.308594 169.136719 202.726562 C 169.136719 199.144531 181.875 185.121094 197.589844 185.121094 C 213.304688 185.121094 230.324219 189.269531 230.324219 192.855469 "/>
<path style="fill:none;stroke-width:10;stroke-linecap:butt;stroke-linejoin:miter;stroke:rgb(13.729858%,12.159729%,12.548828%);stroke-opacity:1;stroke-miterlimit:10;" d="M 3519.501861 1944.834894 C 3519.501861 1818.924384 2925.299581 1369.793219 2376.647808 1369.793219 C 1827.996035 1369.793219 1383.264882 1471.94962 1383.264882 1597.86013 C 1383.264882 1723.77064 1827.996035 2216.702735 2376.647808 2216.702735 C 2925.299581 2216.702735 3519.501861 2070.882711 3519.501861 1944.834894 Z M 3519.501861 1944.834894 " transform="matrix(0.0286427,0,0,-0.028449,129.516339,248.184125)"/>
<path style=" stroke:none;fill-rule:nonzero;fill:rgb(13.729858%,12.159729%,12.548828%);fill-opacity:1;" d="M 197.589844 185.59375 C 182.179688 185.59375 169.609375 199.371094 169.609375 202.726562 C 169.609375 205.570312 181.101562 208.742188 197.589844 208.742188 C 206.6875 208.742188 215.292969 204.5 219.609375 201.972656 C 226.289062 198.058594 229.847656 194.160156 229.847656 192.855469 C 229.847656 191.777344 227.199219 189.882812 219.738281 188.105469 C 213.160156 186.53125 204.878906 185.59375 197.589844 185.59375 Z M 197.589844 209.6875 C 183.566406 209.6875 168.660156 207.246094 168.660156 202.726562 C 168.660156 200.769531 171.847656 196.300781 177.179688 192.207031 C 180.855469 189.386719 188.394531 184.652344 197.589844 184.652344 C 212.230469 184.652344 230.796875 188.511719 230.796875 192.855469 C 230.796875 196.953125 213.148438 209.6875 197.589844 209.6875 "/>
<path style=" stroke:none;fill-rule:nonzero;fill:rgb(13.729858%,12.159729%,12.548828%);fill-opacity:1;" d="M 179.042969 207.351562 C 184.980469 206.5625 191.265625 198.96875 191.265625 198.96875 C 191.265625 198.96875 188.085938 206.378906 183.410156 208.03125 C 182.015625 207.851562 180.410156 207.644531 179.042969 207.351562 "/>
<path style=" stroke:none;fill-rule:nonzero;fill:rgb(100%,100%,100%);fill-opacity:1;" d="M 188.757812 208.53125 C 194.699219 207.742188 200.980469 199.738281 200.980469 199.738281 C 200.980469 199.738281 197.800781 207.144531 193.125 208.796875 C 192.117188 208.796875 190.363281 208.699219 188.757812 208.53125 "/>
<path style="fill:none;stroke-width:10;stroke-linecap:butt;stroke-linejoin:miter;stroke:rgb(13.729858%,12.159729%,12.548828%);stroke-opacity:1;stroke-miterlimit:10;" d="M 2068.29542 1393.821942 C 2275.727522 1421.557954 2495.024576 1702.899978 2495.024576 1702.899978 C 2495.024576 1702.899978 2384.012262 1442.565924 2220.766879 1384.485067 C 2185.581158 1384.485067 2124.347092 1387.917742 2068.29542 1393.821942 Z M 2068.29542 1393.821942 " transform="matrix(0.0286427,0,0,-0.028449,129.516339,248.184125)"/>
<path style=" stroke:none;fill-rule:nonzero;fill:rgb(100%,100%,100%);fill-opacity:1;" d="M 197.464844 208.796875 C 202.511719 208.125 208.539062 200.742188 208.539062 200.742188 C 208.539062 200.742188 205.628906 207.1875 201.652344 208.589844 C 200.550781 208.667969 198.824219 208.9375 197.464844 208.796875 "/>
<path style="fill:none;stroke-width:10;stroke-linecap:butt;stroke-linejoin:miter;stroke:rgb(13.729858%,12.159729%,12.548828%);stroke-opacity:1;stroke-miterlimit:10;" d="M 2372.283688 1384.485067 C 2548.485052 1408.101869 2758.917487 1667.612081 2758.917487 1667.612081 C 2758.917487 1667.612081 2657.315307 1441.055547 2518.481724 1391.762338 C 2480.022912 1389.016198 2419.743498 1379.542015 2372.283688 1384.485067 Z M 2372.283688 1384.485067 " transform="matrix(0.0286427,0,0,-0.028449,129.516339,248.184125)"/>
<path style=" stroke:none;fill-rule:nonzero;fill:rgb(100%,100%,100%);fill-opacity:1;" d="M 148.886719 154.722656 C 144.667969 155.945312 143.898438 159.75 142.859375 164.25 C 142.195312 167.117188 139.375 169.550781 141.394531 175.664062 C 146.027344 185.128906 152.820312 178.984375 160.078125 182.132812 C 167.339844 185.28125 164.960938 201.953125 171.734375 205.535156 C 178.511719 209.121094 188.566406 195.101562 179.933594 191.179688 C 171.300781 187.257812 171.90625 167.476562 167.207031 160.675781 C 162.226562 153.46875 155.898438 152.683594 148.886719 154.722656 "/>
<g clip-path="url(#clip34)" clip-rule="nonzero">
<path style="fill:none;stroke-width:10;stroke-linecap:butt;stroke-linejoin:miter;stroke:rgb(13.729858%,12.159729%,12.548828%);stroke-opacity:1;stroke-miterlimit:10;" d="M 676.277362 3285.225733 C 528.988296 3242.248645 502.121679 3108.511637 465.844928 2950.333984 C 442.660537 2849.550653 344.195069 2764.008398 414.702891 2549.122958 C 576.448106 2216.428121 813.610779 2432.412017 1067.002525 2321.742583 C 1320.53065 2211.073148 1237.475982 1625.046914 1473.956761 1499.136404 C 1710.573918 1373.088587 2061.61286 1865.883375 1760.215789 2003.739593 C 1458.818718 2141.595811 1479.957426 2836.91841 1315.893772 3075.96988 C 1142.010846 3329.301277 921.077246 3356.899982 676.277362 3285.225733 Z M 676.277362 3285.225733 " transform="matrix(0.0286427,0,0,-0.028449,129.516339,248.184125)"/>
</g>
<path style=" stroke:none;fill-rule:nonzero;fill:rgb(13.729858%,12.159729%,12.548828%);fill-opacity:1;" d="M 154.546875 180.652344 C 156.085938 180.652344 158.128906 180.769531 160.269531 181.699219 C 164.203125 183.40625 165.4375 188.75 166.632812 193.917969 C 167.71875 198.613281 168.839844 203.472656 171.957031 205.121094 C 172.617188 205.46875 173.335938 205.644531 174.09375 205.644531 C 174.09375 205.644531 174.097656 205.644531 174.097656 205.644531 C 177.578125 205.644531 181.726562 201.746094 182.628906 197.625 C 182.980469 196.027344 183.070312 193.121094 179.738281 191.609375 C 174.261719 189.125 172.445312 180.914062 170.6875 172.972656 C 169.613281 168.113281 168.597656 163.523438 166.816406 160.941406 C 163.691406 156.417969 159.839844 154.21875 155.046875 154.21875 C 153.203125 154.21875 151.234375 154.53125 149.019531 155.175781 C 145.183594 156.289062 144.398438 159.691406 143.402344 163.996094 L 143.320312 164.355469 C 143.132812 165.164062 142.792969 165.917969 142.4375 166.714844 C 141.492188 168.8125 140.425781 171.191406 141.835938 175.484375 C 144.007812 179.90625 146.574219 180.796875 150.007812 180.796875 C 150.710938 180.796875 151.421875 180.765625 152.171875 180.726562 C 152.941406 180.691406 153.738281 180.652344 154.546875 180.652344 Z M 174.097656 206.589844 C 174.09375 206.589844 174.097656 206.589844 174.09375 206.589844 C 173.179688 206.589844 172.308594 206.375 171.511719 205.953125 C 168.011719 204.101562 166.839844 199.03125 165.707031 194.128906 C 164.5625 189.1875 163.382812 184.078125 159.890625 182.5625 C 157.910156 181.707031 155.992188 181.597656 154.546875 181.597656 C 153.761719 181.597656 152.976562 181.632812 152.214844 181.667969 C 151.453125 181.707031 150.734375 181.742188 150.007812 181.742188 C 146.308594 181.742188 143.351562 180.742188 140.964844 175.871094 L 140.941406 175.8125 C 139.402344 171.152344 140.601562 168.476562 141.570312 166.332031 C 141.90625 165.574219 142.230469 164.863281 142.394531 164.144531 L 142.476562 163.785156 C 143.5 159.359375 144.378906 155.539062 148.753906 154.269531 C 151.054688 153.601562 153.113281 153.273438 155.046875 153.273438 C 160.175781 153.273438 164.285156 155.609375 167.601562 160.40625 C 169.488281 163.140625 170.523438 167.820312 171.617188 172.769531 C 173.246094 180.125 175.089844 188.460938 180.132812 190.75 C 183.011719 192.058594 184.257812 194.636719 183.558594 197.824219 C 182.652344 201.964844 178.410156 206.589844 174.097656 206.589844 "/>
<path style=" stroke:none;fill-rule:nonzero;fill:rgb(13.729858%,12.159729%,12.548828%);fill-opacity:1;" d="M 154.503906 164.25 C 154.503906 165.207031 154.003906 165.984375 153.390625 165.984375 C 152.777344 165.984375 152.277344 165.207031 152.277344 164.25 C 152.277344 163.289062 152.777344 162.511719 153.390625 162.511719 C 154.003906 162.511719 154.503906 163.289062 154.503906 164.25 "/>
<path style=" stroke:none;fill-rule:nonzero;fill:rgb(100%,100%,100%);fill-opacity:1;" d="M 154.113281 163.203125 C 154.308594 163.546875 154.3125 163.917969 154.117188 164.027344 C 153.917969 164.140625 153.597656 163.949219 153.402344 163.605469 C 153.203125 163.257812 153.203125 162.886719 153.398438 162.777344 C 153.59375 162.664062 153.914062 162.855469 154.113281 163.203125 "/>
<path style="fill:none;stroke-width:10;stroke-linecap:butt;stroke-linejoin:miter;stroke:rgb(13.729858%,12.159729%,12.548828%);stroke-opacity:1;stroke-miterlimit:10;" d="M 858.75215 2987.132257 C 865.571089 2975.049242 865.707467 2962.005078 858.888529 2958.160482 C 851.933212 2954.17858 840.750153 2960.906622 833.931215 2972.989637 C 826.975898 2985.209959 826.975898 2998.254124 833.794836 3002.098719 C 840.613775 3006.080622 851.796833 2999.352579 858.75215 2987.132257 Z M 858.75215 2987.132257 " transform="matrix(0.0286427,0,0,-0.028449,129.516339,248.184125)"/>
<path style=" stroke:none;fill-rule:nonzero;fill:rgb(13.729858%,12.159729%,12.548828%);fill-opacity:1;" d="M 145.558594 164.597656 C 145.558594 165.367188 145.160156 165.984375 144.667969 165.984375 C 144.179688 165.984375 143.78125 165.367188 143.78125 164.597656 C 143.78125 163.835938 144.179688 163.214844 144.667969 163.214844 C 145.160156 163.214844 145.558594 163.835938 145.558594 164.597656 "/>
<path style=" stroke:none;fill-rule:nonzero;fill:rgb(100%,100%,100%);fill-opacity:1;" d="M 143.367188 178.871094 C 143.140625 179.886719 143.632812 180.402344 144.25 180.558594 C 145.675781 180.910156 160.980469 175.460938 158.425781 172.609375 "/>
<g clip-path="url(#clip35)" clip-rule="nonzero">
<path style="fill:none;stroke-width:10;stroke-linecap:butt;stroke-linejoin:miter;stroke:rgb(13.729858%,12.159729%,12.548828%);stroke-opacity:1;stroke-miterlimit:10;" d="M 483.574167 2436.393919 C 475.664199 2400.694102 492.847923 2382.569579 514.395768 2377.0773 C 564.174017 2364.719671 1098.50602 2556.262922 1009.314307 2656.497025 " transform="matrix(0.0286427,0,0,-0.028449,129.516339,248.184125)"/>
</g>
<path style=" stroke:none;fill-rule:nonzero;fill:rgb(13.729858%,12.159729%,12.548828%);fill-opacity:1;" d="M 144.367188 181.039062 C 144.273438 181.039062 144.195312 181.03125 144.132812 181.015625 C 143.378906 180.828125 142.601562 180.125 142.902344 178.769531 C 142.960938 178.515625 143.214844 178.351562 143.46875 178.410156 C 143.726562 178.464844 143.886719 178.71875 143.832031 178.972656 C 143.691406 179.597656 143.871094 179.976562 144.367188 180.097656 C 145.5625 180.320312 156.574219 176.441406 158.097656 173.75 C 158.339844 173.320312 158.226562 173.097656 158.070312 172.921875 C 157.894531 172.726562 157.914062 172.429688 158.109375 172.257812 C 158.308594 172.082031 158.609375 172.101562 158.78125 172.296875 C 159.285156 172.859375 159.320312 173.566406 158.882812 174.289062 C 157.027344 177.328125 146.5 181.039062 144.367188 181.039062 "/>
<path style=" stroke:none;fill-rule:nonzero;fill:rgb(13.729858%,12.159729%,12.548828%);fill-opacity:1;" d="M 159.507812 157.574219 C 159.074219 158.171875 157.878906 158.054688 156.835938 157.3125 C 155.789062 156.570312 155.289062 155.484375 155.71875 154.886719 C 156.148438 154.289062 157.34375 154.40625 158.390625 155.148438 C 159.4375 155.890625 159.9375 156.976562 159.507812 157.574219 "/>
<path style=" stroke:none;fill-rule:nonzero;fill:rgb(13.729858%,12.159729%,12.548828%);fill-opacity:1;" d="M 162.117188 157.246094 C 161.917969 157.523438 161.386719 157.484375 160.933594 157.164062 C 160.476562 156.839844 160.269531 156.355469 160.46875 156.078125 C 160.667969 155.800781 161.199219 155.839844 161.652344 156.160156 C 162.109375 156.484375 162.316406 156.96875 162.117188 157.246094 "/>
<path style=" stroke:none;fill-rule:nonzero;fill:rgb(13.729858%,12.159729%,12.548828%);fill-opacity:1;" d="M 162.570312 159.683594 C 162.371094 159.960938 161.84375 159.925781 161.386719 159.601562 C 160.933594 159.277344 160.726562 158.792969 160.925781 158.515625 C 161.125 158.238281 161.652344 158.277344 162.109375 158.597656 C 162.5625 158.921875 162.769531 159.40625 162.570312 159.683594 "/>
<path style=" stroke:none;fill-rule:nonzero;fill:rgb(100%,100%,100%);fill-opacity:1;" d="M 145.199219 163.859375 C 145.398438 164.203125 145.398438 164.574219 145.203125 164.683594 C 145.003906 164.796875 144.6875 164.605469 144.488281 164.261719 C 144.289062 163.914062 144.289062 163.542969 144.484375 163.433594 C 144.679688 163.324219 145 163.511719 145.199219 163.859375 "/>
<path style="fill:none;stroke-width:10;stroke-linecap:butt;stroke-linejoin:miter;stroke:rgb(13.729858%,12.159729%,12.548828%);stroke-opacity:1;stroke-miterlimit:10;" d="M 547.535808 2964.064683 C 554.491125 2951.981668 554.491125 2938.937504 547.672187 2935.092908 C 540.71687 2931.111005 529.67019 2937.839048 522.714873 2949.922063 C 515.759556 2962.142385 515.759556 2975.186549 522.578494 2979.031145 C 529.397432 2982.875741 540.580491 2976.285005 547.535808 2964.064683 Z M 547.535808 2964.064683 " transform="matrix(0.0286427,0,0,-0.028449,129.516339,248.184125)"/>
<path style=" stroke:none;fill-rule:nonzero;fill:rgb(100%,100%,100%);fill-opacity:1;" d="M 201.179688 220.363281 C 198.765625 221.886719 193.023438 221.929688 189.847656 220.363281 C 186.667969 218.792969 189.847656 199.609375 189.847656 199.609375 L 201.179688 199.609375 C 201.179688 199.609375 203.589844 218.835938 201.179688 220.363281 "/>
<g clip-path="url(#clip36)" clip-rule="nonzero">
<path style="fill:none;stroke-width:10;stroke-linecap:butt;stroke-linejoin:miter;stroke:rgb(13.729858%,12.159729%,12.548828%);stroke-opacity:1;stroke-miterlimit:10;" d="M 2501.979893 977.919069 C 2417.697817 924.369343 2217.221032 922.858966 2106.345095 977.919069 C 1995.33278 1033.116479 2106.345095 1707.431108 2106.345095 1707.431108 L 2501.979893 1707.431108 C 2501.979893 1707.431108 2586.125592 1031.606102 2501.979893 977.919069 Z M 2501.979893 977.919069 " transform="matrix(0.0286427,0,0,-0.028449,129.516339,248.184125)"/>
</g>
<path style=" stroke:none;fill-rule:nonzero;fill:rgb(13.729858%,12.159729%,12.548828%);fill-opacity:1;" d="M 190.046875 199.847656 C 189.164062 205.277344 187.503906 218.941406 189.953125 220.152344 C 191.414062 220.871094 193.53125 221.285156 195.757812 221.285156 C 197.960938 221.285156 199.9375 220.867188 201.050781 220.164062 C 202.710938 219.113281 201.917969 207.519531 200.96875 199.847656 Z M 195.757812 221.757812 C 193.460938 221.757812 191.265625 221.328125 189.742188 220.574219 C 186.5 218.972656 189.285156 201.554688 189.613281 199.570312 L 189.644531 199.375 L 201.386719 199.375 L 201.414062 199.582031 C 201.664062 201.5625 203.773438 219 201.304688 220.5625 C 200.105469 221.320312 198.082031 221.757812 195.757812 221.757812 "/>
<path style=" stroke:none;fill-rule:nonzero;fill:rgb(100%,100%,100%);fill-opacity:1;" d="M 192.058594 221.121094 C 192.058594 221.121094 189.5625 220.480469 189.246094 219.742188 C 188.929688 219.003906 189.722656 218.503906 189.722656 216.03125 C 189.722656 213.554688 193.144531 213.757812 193.144531 216.03125 C 193.144531 218.300781 192.058594 221.121094 192.058594 221.121094 "/>
<g clip-path="url(#clip37)" clip-rule="nonzero">
<path style="fill:none;stroke-width:10;stroke-linecap:butt;stroke-linejoin:miter;stroke:rgb(13.729858%,12.159729%,12.548828%);stroke-opacity:1;stroke-miterlimit:10;" d="M 2183.535477 951.281513 C 2183.535477 951.281513 2096.389445 973.799859 2085.342765 999.75088 C 2074.296086 1025.564595 2101.980975 1043.277196 2101.980975 1130.192521 C 2101.980975 1217.245153 2221.448773 1210.105189 2221.448773 1130.192521 C 2221.448773 1050.41716 2183.535477 951.281513 2183.535477 951.281513 Z M 2183.535477 951.281513 " transform="matrix(0.0286427,0,0,-0.028449,129.516339,248.184125)"/>
</g>
<path style=" stroke:none;fill-rule:nonzero;fill:rgb(13.729858%,12.159729%,12.548828%);fill-opacity:1;" d="M 191.378906 214.722656 C 190.835938 214.722656 190.199219 215.0625 190.199219 216.03125 C 190.199219 217.441406 189.949219 218.261719 189.78125 218.804688 C 189.652344 219.230469 189.609375 219.386719 189.683594 219.558594 C 189.785156 219.800781 190.722656 220.238281 191.761719 220.546875 C 192.050781 219.703125 192.667969 217.691406 192.667969 216.03125 C 192.667969 215.128906 192 214.722656 191.378906 214.722656 Z M 192.351562 221.683594 L 191.941406 221.578125 C 191.300781 221.414062 189.183594 220.8125 188.808594 219.929688 C 188.597656 219.433594 188.722656 219.011719 188.871094 218.527344 C 189.03125 218.011719 189.25 217.300781 189.25 216.03125 C 189.25 214.480469 190.351562 213.777344 191.378906 213.777344 C 192.464844 213.777344 193.621094 214.566406 193.621094 216.03125 C 193.621094 218.359375 192.550781 221.171875 192.503906 221.289062 L 192.351562 221.683594 "/>
<path style=" stroke:none;fill-rule:nonzero;fill:rgb(100%,100%,100%);fill-opacity:1;" d="M 196.964844 221.523438 C 196.445312 221.734375 194.03125 221.714844 193.417969 221.328125 C 192.675781 220.855469 193.699219 219.277344 193.699219 216.804688 C 193.699219 214.328125 197.117188 214.53125 197.117188 216.804688 C 197.117188 219.074219 197.480469 221.3125 196.964844 221.523438 "/>
<g clip-path="url(#clip38)" clip-rule="nonzero">
<path style="fill:none;stroke-width:10;stroke-linecap:butt;stroke-linejoin:miter;stroke:rgb(13.729858%,12.159729%,12.548828%);stroke-opacity:1;stroke-miterlimit:10;" d="M 2354.827206 937.138893 C 2336.68883 929.724315 2252.406753 930.41085 2230.995287 944.004242 C 2205.083321 960.618388 2240.814558 1016.090412 2240.814558 1103.005737 C 2240.814558 1190.058369 2360.145978 1182.918405 2360.145978 1103.005737 C 2360.145978 1023.230376 2372.829203 944.55347 2354.827206 937.138893 Z M 2354.827206 937.138893 " transform="matrix(0.0286427,0,0,-0.028449,129.516339,248.184125)"/>
</g>
<g clip-path="url(#clip39)" clip-rule="nonzero">
<path style=" stroke:none;fill-rule:nonzero;fill:rgb(13.729858%,12.159729%,12.548828%);fill-opacity:1;" d="M 195.351562 215.496094 C 194.808594 215.496094 194.171875 215.839844 194.171875 216.804688 C 194.171875 217.953125 193.96875 218.894531 193.800781 219.652344 C 193.691406 220.15625 193.542969 220.84375 193.675781 220.929688 C 193.871094 221.054688 194.660156 221.183594 195.628906 221.183594 C 196.175781 221.183594 196.542969 221.144531 196.707031 221.105469 C 196.8125 220.792969 196.757812 219.761719 196.714844 218.925781 C 196.679688 218.277344 196.644531 217.539062 196.644531 216.804688 C 196.644531 215.902344 195.972656 215.496094 195.351562 215.496094 Z M 195.628906 222.128906 C 195.199219 222.128906 193.753906 222.101562 193.164062 221.722656 C 192.472656 221.285156 192.65625 220.4375 192.871094 219.453125 C 193.027344 218.738281 193.222656 217.851562 193.222656 216.804688 C 193.222656 215.253906 194.328125 214.550781 195.351562 214.550781 C 196.441406 214.550781 197.59375 215.339844 197.59375 216.804688 C 197.59375 217.515625 197.632812 218.238281 197.664062 218.878906 C 197.757812 220.691406 197.808594 221.6875 197.144531 221.960938 C 196.78125 222.105469 196.039062 222.128906 195.628906 222.128906 "/>
</g>
<path style=" stroke:none;fill-rule:nonzero;fill:rgb(100%,100%,100%);fill-opacity:1;" d="M 198.65625 221.328125 C 198.65625 221.328125 201.15625 220.6875 201.472656 219.949219 C 201.789062 219.210938 200.992188 218.710938 200.992188 216.234375 C 200.992188 213.761719 197.574219 213.964844 197.574219 216.234375 C 197.574219 218.503906 198.65625 221.328125 198.65625 221.328125 "/>
<g clip-path="url(#clip40)" clip-rule="nonzero">
<path style="fill:none;stroke-width:10;stroke-linecap:butt;stroke-linejoin:miter;stroke:rgb(13.729858%,12.159729%,12.548828%);stroke-opacity:1;stroke-miterlimit:10;" d="M 2413.879211 944.004242 C 2413.879211 944.004242 2501.161621 966.522589 2512.208301 992.47361 C 2523.254981 1018.424631 2495.433713 1035.999926 2495.433713 1123.052558 C 2495.433713 1209.967882 2376.102293 1202.827919 2376.102293 1123.052558 C 2376.102293 1043.277196 2413.879211 944.004242 2413.879211 944.004242 Z M 2413.879211 944.004242 " transform="matrix(0.0286427,0,0,-0.028449,129.516339,248.184125)"/>
</g>
<path style=" stroke:none;fill-rule:nonzero;fill:rgb(13.729858%,12.159729%,12.548828%);fill-opacity:1;" d="M 199.339844 214.929688 C 198.71875 214.929688 198.046875 215.335938 198.046875 216.234375 C 198.046875 217.898438 198.667969 219.910156 198.957031 220.753906 C 199.992188 220.445312 200.933594 220.003906 201.035156 219.765625 C 201.109375 219.59375 201.066406 219.4375 200.9375 219.007812 C 200.769531 218.46875 200.519531 217.648438 200.519531 216.234375 C 200.519531 215.269531 199.882812 214.929688 199.339844 214.929688 Z M 198.363281 221.890625 L 198.214844 221.496094 C 198.167969 221.378906 197.097656 218.566406 197.097656 216.234375 C 197.097656 214.773438 198.253906 213.984375 199.339844 213.984375 C 200.363281 213.984375 201.46875 214.6875 201.46875 216.234375 C 201.46875 217.507812 201.6875 218.21875 201.84375 218.734375 C 201.992188 219.21875 202.121094 219.636719 201.910156 220.132812 C 201.53125 221.015625 199.414062 221.621094 198.777344 221.785156 L 198.363281 221.890625 "/>
<path style=" stroke:none;fill-rule:nonzero;fill:rgb(100%,100%,100%);fill-opacity:1;" d="M 224.472656 217.523438 C 222.058594 219.050781 216.316406 219.089844 213.136719 217.523438 C 209.960938 215.957031 213.136719 196.773438 213.136719 196.773438 L 224.472656 196.773438 C 224.472656 196.773438 226.882812 215.996094 224.472656 217.523438 "/>
<g clip-path="url(#clip41)" clip-rule="nonzero">
<path style="fill:none;stroke-width:10;stroke-linecap:butt;stroke-linejoin:miter;stroke:rgb(13.729858%,12.159729%,12.548828%);stroke-opacity:1;stroke-miterlimit:10;" d="M 3315.206471 1077.741251 C 3230.924394 1024.054218 3030.447609 1022.681148 2919.435294 1077.741251 C 2808.559358 1132.801354 2919.435294 1807.115983 2919.435294 1807.115983 L 3315.206471 1807.115983 C 3315.206471 1807.115983 3399.352169 1131.428284 3315.206471 1077.741251 Z M 3315.206471 1077.741251 " transform="matrix(0.0286427,0,0,-0.028449,129.516339,248.184125)"/>
</g>
<path style=" stroke:none;fill-rule:nonzero;fill:rgb(13.729858%,12.159729%,12.548828%);fill-opacity:1;" d="M 213.542969 197.246094 C 213.347656 198.492188 212.746094 202.503906 212.421875 206.601562 C 211.726562 215.320312 212.839844 216.851562 213.351562 217.101562 C 214.78125 217.808594 216.855469 218.210938 219.046875 218.210938 C 221.207031 218.210938 223.140625 217.804688 224.214844 217.125 C 225.546875 216.28125 225.179688 206.433594 224.050781 197.246094 Z M 219.046875 219.15625 C 216.714844 219.15625 214.484375 218.714844 212.925781 217.945312 C 211.953125 217.464844 210.738281 215.757812 211.472656 206.523438 C 211.867188 201.570312 212.660156 196.746094 212.667969 196.695312 L 212.734375 196.300781 L 224.890625 196.300781 L 224.941406 196.714844 C 224.949219 196.761719 225.550781 201.59375 225.851562 206.546875 C 226.46875 216.820312 225.203125 217.621094 224.726562 217.921875 C 223.484375 218.707031 221.417969 219.15625 219.046875 219.15625 "/>
<path style=" stroke:none;fill-rule:nonzero;fill:rgb(100%,100%,100%);fill-opacity:1;" d="M 215.351562 218.28125 C 215.351562 218.28125 212.851562 217.644531 212.539062 216.90625 C 212.222656 216.167969 213.015625 215.664062 213.015625 213.191406 C 213.015625 210.714844 216.4375 210.921875 216.4375 213.191406 C 216.4375 215.460938 215.351562 218.28125 215.351562 218.28125 "/>
<g clip-path="url(#clip42)" clip-rule="nonzero">
<path style="fill:none;stroke-width:10;stroke-linecap:butt;stroke-linejoin:miter;stroke:rgb(13.729858%,12.159729%,12.548828%);stroke-opacity:1;stroke-miterlimit:10;" d="M 2996.762054 1051.103695 C 2996.762054 1051.103695 2909.479644 1073.484734 2898.569343 1099.435755 C 2887.522663 1125.386776 2915.207552 1143.099378 2915.207552 1230.014703 C 2915.207552 1317.067335 3034.675351 1309.790064 3034.675351 1230.014703 C 3034.675351 1150.239342 2996.762054 1051.103695 2996.762054 1051.103695 Z M 2996.762054 1051.103695 " transform="matrix(0.0286427,0,0,-0.028449,129.516339,248.184125)"/>
</g>
<path style=" stroke:none;fill-rule:nonzero;fill:rgb(13.729858%,12.159729%,12.548828%);fill-opacity:1;" d="M 214.671875 211.882812 C 214.128906 211.882812 213.492188 212.226562 213.492188 213.191406 C 213.492188 214.601562 213.242188 215.421875 213.074219 215.964844 C 212.945312 216.390625 212.902344 216.550781 212.976562 216.722656 C 213.078125 216.960938 214.015625 217.398438 215.050781 217.707031 C 215.339844 216.863281 215.960938 214.851562 215.960938 213.191406 C 215.960938 212.292969 215.292969 211.882812 214.671875 211.882812 Z M 215.644531 218.84375 L 215.234375 218.738281 C 214.59375 218.578125 212.476562 217.972656 212.101562 217.089844 C 211.886719 216.59375 212.015625 216.175781 212.164062 215.691406 C 212.324219 215.171875 212.539062 214.460938 212.539062 213.191406 C 212.539062 211.644531 213.644531 210.9375 214.671875 210.9375 C 215.757812 210.9375 216.914062 211.730469 216.914062 213.191406 C 216.914062 215.523438 215.84375 218.332031 215.796875 218.453125 L 215.644531 218.84375 "/>
<path style=" stroke:none;fill-rule:nonzero;fill:rgb(100%,100%,100%);fill-opacity:1;" d="M 220.253906 218.683594 C 219.734375 218.894531 217.324219 218.875 216.710938 218.488281 C 215.96875 218.015625 216.992188 216.4375 216.992188 213.964844 C 216.992188 211.488281 220.410156 211.695312 220.410156 213.964844 C 220.410156 216.234375 220.773438 218.472656 220.253906 218.683594 "/>
<g clip-path="url(#clip43)" clip-rule="nonzero">
<path style="fill:none;stroke-width:10;stroke-linecap:butt;stroke-linejoin:miter;stroke:rgb(13.729858%,12.159729%,12.548828%);stroke-opacity:1;stroke-miterlimit:10;" d="M 3167.917404 1036.961075 C 3149.779029 1029.546497 3065.63333 1030.233032 3044.221864 1043.826424 C 3018.309899 1060.44057 3054.041135 1115.912594 3054.041135 1202.827919 C 3054.041135 1289.880551 3173.372555 1282.60328 3173.372555 1202.827919 C 3173.372555 1123.052558 3186.05578 1044.375652 3167.917404 1036.961075 Z M 3167.917404 1036.961075 " transform="matrix(0.0286427,0,0,-0.028449,129.516339,248.184125)"/>
</g>
<path style=" stroke:none;fill-rule:nonzero;fill:rgb(13.729858%,12.159729%,12.548828%);fill-opacity:1;" d="M 218.644531 212.65625 C 218.101562 212.65625 217.464844 213 217.464844 213.964844 C 217.464844 215.113281 217.261719 216.058594 217.09375 216.8125 C 216.984375 217.316406 216.832031 218.003906 216.96875 218.089844 C 217.164062 218.214844 217.953125 218.347656 218.921875 218.347656 C 219.472656 218.347656 219.835938 218.304688 220 218.269531 C 220.101562 217.953125 220.050781 216.925781 220.007812 216.085938 C 219.972656 215.4375 219.9375 214.703125 219.9375 213.964844 C 219.9375 213.066406 219.265625 212.65625 218.644531 212.65625 Z M 218.921875 219.289062 C 218.492188 219.289062 217.046875 219.261719 216.457031 218.886719 C 215.765625 218.449219 215.949219 217.597656 216.164062 216.613281 C 216.320312 215.902344 216.515625 215.015625 216.515625 213.964844 C 216.515625 212.417969 217.621094 211.714844 218.644531 211.714844 C 219.730469 211.714844 220.886719 212.5 220.886719 213.964844 C 220.886719 214.675781 220.925781 215.402344 220.957031 216.039062 C 221.050781 217.851562 221.101562 218.851562 220.433594 219.121094 C 220.074219 219.269531 219.332031 219.289062 218.921875 219.289062 "/>
<path style=" stroke:none;fill-rule:nonzero;fill:rgb(100%,100%,100%);fill-opacity:1;" d="M 221.949219 218.488281 C 221.949219 218.488281 224.449219 217.847656 224.765625 217.109375 C 225.078125 216.375 224.285156 215.871094 224.285156 213.398438 C 224.285156 210.921875 220.863281 211.128906 220.863281 213.398438 C 220.863281 215.667969 221.949219 218.488281 221.949219 218.488281 "/>
<g clip-path="url(#clip44)" clip-rule="nonzero">
<path style="fill:none;stroke-width:10;stroke-linecap:butt;stroke-linejoin:miter;stroke:rgb(13.729858%,12.159729%,12.548828%);stroke-opacity:1;stroke-miterlimit:10;" d="M 3227.105789 1043.826424 C 3227.105789 1043.826424 3314.388198 1066.344771 3325.434878 1092.295792 C 3336.34518 1118.109506 3308.66029 1135.822108 3308.66029 1222.737433 C 3308.66029 1309.790064 3189.192492 1302.512794 3189.192492 1222.737433 C 3189.192492 1142.962071 3227.105789 1043.826424 3227.105789 1043.826424 Z M 3227.105789 1043.826424 " transform="matrix(0.0286427,0,0,-0.028449,129.516339,248.184125)"/>
</g>
<path style=" stroke:none;fill-rule:nonzero;fill:rgb(13.729858%,12.159729%,12.548828%);fill-opacity:1;" d="M 222.628906 212.089844 C 222.007812 212.089844 221.339844 212.5 221.339844 213.398438 C 221.339844 215.058594 221.960938 217.070312 222.25 217.914062 C 223.285156 217.605469 224.222656 217.167969 224.328125 216.925781 C 224.402344 216.753906 224.359375 216.597656 224.226562 216.171875 C 224.0625 215.628906 223.8125 214.808594 223.8125 213.398438 C 223.8125 212.429688 223.175781 212.089844 222.628906 212.089844 Z M 221.65625 219.050781 L 221.507812 218.65625 C 221.460938 218.539062 220.390625 215.726562 220.390625 213.398438 C 220.390625 211.933594 221.542969 211.144531 222.628906 211.144531 C 223.65625 211.144531 224.761719 211.851562 224.761719 213.398438 C 224.761719 214.667969 224.976562 215.378906 225.136719 215.898438 C 225.285156 216.382812 225.414062 216.800781 225.203125 217.296875 C 224.824219 218.179688 222.707031 218.78125 222.070312 218.945312 L 221.65625 219.050781 "/>
<path style=" stroke:none;fill-rule:nonzero;fill:rgb(100%,100%,100%);fill-opacity:1;" d="M 231.445312 191.101562 C 231.445312 196.511719 218.226562 205.265625 204.542969 205.265625 C 198.601562 205.265625 188.492188 206.398438 185.164062 200.417969 C 182.789062 196.148438 182.628906 192.046875 178.828125 190.558594 C 172.691406 181.929688 191.671875 163.402344 205.355469 163.402344 C 219.039062 163.402344 231.445312 180.539062 231.445312 191.101562 "/>
<path style="fill:none;stroke-width:10;stroke-linecap:butt;stroke-linejoin:miter;stroke:rgb(13.729858%,12.159729%,12.548828%);stroke-opacity:1;stroke-miterlimit:10;" d="M 3558.642567 2006.485733 C 3558.642567 1816.315551 3097.136825 1508.610586 2619.40201 1508.610586 C 2411.969908 1508.610586 2059.021664 1468.791559 1942.826956 1679.008561 C 1859.908666 1829.085102 1854.317137 1973.257441 1721.620598 2025.571405 C 1507.369558 2328.882546 2170.033979 2980.129601 2647.768794 2980.129601 C 3125.503608 2980.129601 3558.642567 2377.763835 3558.642567 2006.485733 Z M 3558.642567 2006.485733 " transform="matrix(0.0286427,0,0,-0.028449,129.516339,248.184125)"/>
<path style=" stroke:none;fill-rule:nonzero;fill:rgb(13.729858%,12.159729%,12.548828%);fill-opacity:1;" d="M 179.136719 190.171875 C 181.832031 191.292969 182.761719 193.636719 183.839844 196.34375 C 184.335938 197.585938 184.847656 198.871094 185.578125 200.1875 C 187.878906 204.320312 193.621094 204.878906 198.929688 204.878906 C 199.996094 204.878906 201.03125 204.855469 202.027344 204.832031 C 202.917969 204.8125 203.761719 204.792969 204.535156 204.792969 C 210.648438 204.792969 217.335938 202.972656 222.886719 199.804688 C 227.796875 196.996094 230.96875 193.582031 230.96875 191.101562 C 230.96875 185.984375 227.90625 179.113281 223.171875 173.597656 C 217.867188 167.417969 211.371094 163.875 205.355469 163.875 C 195.804688 163.875 183.949219 172.929688 179.726562 181.027344 C 178.375 183.621094 177.1875 187.296875 179.136719 190.171875 Z M 198.929688 205.824219 C 193.34375 205.824219 187.285156 205.207031 184.75 200.644531 C 183.988281 199.277344 183.441406 197.902344 182.957031 196.6875 C 181.902344 194.035156 181.066406 191.941406 178.652344 190.996094 L 178.519531 190.945312 L 178.4375 190.828125 C 176.589844 188.230469 176.746094 184.691406 178.882812 180.59375 C 183.230469 172.257812 195.476562 162.929688 205.355469 162.929688 C 219.503906 162.929688 231.917969 180.488281 231.917969 191.101562 C 231.917969 193.957031 228.640625 197.605469 223.359375 200.621094 C 217.667969 203.871094 210.808594 205.738281 204.542969 205.738281 C 203.769531 205.738281 202.933594 205.757812 202.050781 205.777344 C 201.046875 205.800781 200.007812 205.824219 198.929688 205.824219 "/>
<path style=" stroke:none;fill-rule:nonzero;fill:rgb(100%,100%,100%);fill-opacity:1;" d="M 206.199219 204.820312 C 199.714844 204.820312 188.683594 205.953125 185.054688 199.972656 C 182.460938 195.703125 182.6875 191.597656 178.535156 190.109375 C 177.660156 188.976562 177.648438 186.53125 177.640625 185.121094 C 176.105469 188.335938 175.117188 192.535156 176.925781 194.863281 C 181.078125 196.351562 181.25 200.457031 183.84375 204.722656 C 187.472656 210.703125 198.507812 209.570312 204.988281 209.570312 C 219.921875 209.570312 232.582031 198.359375 232.582031 192.953125 C 232.582031 192.4375 232.226562 191.414062 231.445312 191.359375 C 227.566406 196.464844 218.457031 204.820312 206.199219 204.820312 "/>
<path style="fill:none;stroke-width:10;stroke-linecap:butt;stroke-linejoin:miter;stroke:rgb(13.729858%,12.159729%,12.548828%);stroke-opacity:1;stroke-miterlimit:10;" d="M 2677.226607 1524.263583 C 2450.837856 1524.263583 2065.704223 1484.444556 1939.00835 1694.661558 C 1848.45285 1844.738098 1856.362819 1989.047745 1711.392191 2041.361708 C 1680.843348 2081.180736 1680.434211 2167.134912 1680.161454 2216.702735 C 1626.564599 2103.699082 1592.060771 1956.094068 1655.20414 1874.259101 C 1800.174767 1821.945138 1806.175433 1677.635491 1896.730933 1527.696258 C 2023.426806 1317.479256 2408.696818 1357.298283 2634.94919 1357.298283 C 3156.325209 1357.298283 3598.328788 1751.369345 3598.328788 1941.40222 C 3598.328788 1959.526742 3585.91832 1995.501174 3558.642567 1997.423472 C 3423.218453 1817.963235 3105.183172 1524.263583 2677.226607 1524.263583 Z M 2677.226607 1524.263583 " transform="matrix(0.0286427,0,0,-0.028449,129.516339,248.184125)"/>
<path style=" stroke:none;fill-rule:nonzero;fill:rgb(13.729858%,12.159729%,12.548828%);fill-opacity:1;" d="M 177.222656 194.46875 C 180.15625 195.582031 181.175781 197.925781 182.351562 200.632812 C 182.890625 201.878906 183.453125 203.164062 184.25 204.480469 C 186.769531 208.625 193.050781 209.183594 198.863281 209.183594 C 200.03125 209.183594 201.15625 209.160156 202.25 209.140625 C 203.21875 209.117188 204.136719 209.101562 204.984375 209.101562 C 213.828125 209.101562 220.765625 205.214844 224.113281 202.902344 C 228.820312 199.648438 232.105469 195.554688 232.105469 192.953125 C 232.105469 192.648438 231.921875 192.105469 231.621094 191.90625 C 229.449219 194.683594 220.230469 205.292969 206.199219 205.292969 C 205.359375 205.292969 204.445312 205.3125 203.476562 205.332031 C 202.382812 205.355469 201.25 205.378906 200.074219 205.378906 C 193.996094 205.378906 187.40625 204.765625 184.648438 200.214844 C 183.75 198.738281 183.175781 197.265625 182.667969 195.964844 C 181.691406 193.449219 180.917969 191.464844 178.375 190.550781 L 178.246094 190.503906 L 178.160156 190.398438 C 177.585938 189.65625 177.34375 188.472656 177.246094 187.324219 C 176.335938 189.921875 175.996094 192.753906 177.222656 194.46875 Z M 198.863281 210.128906 C 192.785156 210.128906 186.199219 209.515625 183.4375 204.96875 C 182.605469 203.597656 182.007812 202.222656 181.476562 201.007812 C 180.324219 198.355469 179.417969 196.257812 176.765625 195.304688 L 176.632812 195.261719 L 176.550781 195.152344 C 174.121094 192.023438 176.441406 186.53125 177.210938 184.921875 L 178.101562 183.058594 L 178.113281 185.164062 C 178.125 186.402344 178.140625 188.667969 178.835938 189.714844 C 181.675781 190.796875 182.550781 193.039062 183.554688 195.625 C 184.074219 196.949219 184.605469 198.320312 185.460938 199.726562 C 187.976562 203.875 194.261719 204.433594 200.074219 204.433594 C 201.238281 204.433594 202.367188 204.410156 203.457031 204.386719 C 204.429688 204.367188 205.347656 204.347656 206.195312 204.347656 C 220.273438 204.347656 229.378906 193.289062 231.0625 191.074219 L 231.21875 190.867188 L 231.480469 190.886719 C 232.59375 190.972656 233.054688 192.273438 233.054688 192.953125 C 233.054688 195.890625 229.679688 200.203125 224.65625 203.675781 C 221.21875 206.054688 214.089844 210.042969 204.988281 210.042969 C 204.148438 210.042969 203.234375 210.0625 202.265625 210.082031 C 201.171875 210.105469 200.039062 210.128906 198.863281 210.128906 "/>
<path style=" stroke:none;fill-rule:nonzero;fill:rgb(100%,100%,100%);fill-opacity:1;" d="M 199.621094 171.011719 L 195.710938 165.839844 L 196.089844 165.554688 L 199.835938 170.507812 L 206.140625 169.71875 L 208.3125 163.625 L 208.761719 163.785156 L 206.492188 170.148438 L 199.621094 171.011719 "/>
<path style="fill:none;stroke-width:10;stroke-linecap:butt;stroke-linejoin:miter;stroke:rgb(13.729858%,12.159729%,12.548828%);stroke-opacity:1;stroke-miterlimit:10;" d="M 2447.564766 2712.655584 L 2311.049622 2894.450039 L 2324.278362 2904.473449 L 2455.065598 2730.368186 L 2675.180925 2758.104198 L 2751.007519 2972.165795 L 2766.691077 2966.673516 L 2687.455014 2743.000429 Z M 2447.564766 2712.655584 " transform="matrix(0.0286427,0,0,-0.028449,129.516339,248.184125)"/>
<path style=" stroke:none;fill-rule:nonzero;fill:rgb(13.729858%,12.159729%,12.548828%);fill-opacity:1;" d="M 189.730469 178.765625 L 186.792969 171.554688 L 187.675781 171.199219 L 190.339844 177.746094 L 197.355469 176.9375 L 199.207031 170.855469 L 195.519531 165.980469 L 196.28125 165.414062 L 200.253906 170.667969 L 198.085938 177.804688 L 189.730469 178.765625 "/>
<path style=" stroke:none;fill-rule:nonzero;fill:rgb(13.729858%,12.159729%,12.548828%);fill-opacity:1;" d="M 187.382812 183.90625 L 191.507812 190.210938 L 199.632812 189.433594 L 201.261719 182.332031 L 197.519531 177.871094 L 190.332031 178.695312 Z M 191.023438 191.203125 L 186.273438 183.9375 L 189.742188 177.816406 L 197.921875 176.871094 L 202.292969 182.085938 L 200.40625 190.308594 L 191.023438 191.203125 "/>
<path style=" stroke:none;fill-rule:nonzero;fill:rgb(13.729858%,12.159729%,12.548828%);fill-opacity:1;" d="M 200.136719 205.035156 L 199.324219 204.542969 L 203.980469 196.902344 L 199.777344 190.367188 L 191.542969 191.15625 L 186.21875 199.632812 L 185.410156 199.132812 L 190.984375 190.261719 L 200.265625 189.375 L 205.101562 196.890625 L 200.136719 205.035156 "/>
<path style=" stroke:none;fill-rule:nonzero;fill:rgb(13.729858%,12.159729%,12.548828%);fill-opacity:1;" d="M 187.085938 184.429688 L 178.335938 183.308594 L 178.457031 182.371094 L 186.570312 183.414062 L 189.511719 178.222656 L 186.792969 171.554688 L 187.675781 171.199219 L 190.5625 178.289062 L 187.085938 184.429688 "/>
<path style=" stroke:none;fill-rule:nonzero;fill:rgb(13.729858%,12.159729%,12.548828%);fill-opacity:1;" d="M 185.566406 200.667969 L 184.761719 200.167969 L 190.699219 190.714844 L 186.546875 184.363281 L 178.335938 183.308594 L 178.457031 182.371094 L 187.105469 183.480469 L 191.828125 190.703125 L 185.566406 200.667969 "/>
<path style=" stroke:none;fill-rule:nonzero;fill:rgb(13.729858%,12.159729%,12.548828%);fill-opacity:1;" d="M 198.25 177.265625 L 201.976562 181.707031 L 208.023438 180.949219 L 210.550781 174.359375 L 206.160156 170.429688 L 200.097656 171.191406 Z M 201.578125 182.710938 L 197.191406 177.476562 L 199.363281 170.332031 L 206.472656 169.4375 L 211.671875 174.089844 L 208.707031 181.816406 L 201.578125 182.710938 "/>
<path style=" stroke:none;fill-rule:nonzero;fill:rgb(13.729858%,12.159729%,12.548828%);fill-opacity:1;" d="M 210.980469 174.742188 L 205.761719 170.074219 L 208.089844 163.546875 L 208.984375 163.863281 L 206.871094 169.792969 L 211.242188 173.707031 L 218.871094 171.867188 L 219.464844 169.527344 L 220.386719 169.757812 L 219.652344 172.652344 L 210.980469 174.742188 "/>
<path style=" stroke:none;fill-rule:nonzero;fill:rgb(13.729858%,12.159729%,12.548828%);fill-opacity:1;" d="M 213.265625 188.109375 L 207.996094 181.679688 L 208.734375 181.085938 L 213.628906 187.054688 L 222.675781 184.953125 L 224.390625 177.816406 L 218.933594 172.601562 L 219.59375 171.921875 L 225.441406 177.511719 L 223.464844 185.738281 L 213.265625 188.109375 "/>
<path style=" stroke:none;fill-rule:nonzero;fill:rgb(13.729858%,12.159729%,12.548828%);fill-opacity:1;" d="M 219.125 200.574219 L 211.992188 195.6875 L 212.53125 194.910156 L 219.222656 199.492188 L 225.734375 196.570312 L 227.015625 189.1875 L 222.539062 185.523438 L 224.566406 177.085938 L 227.269531 177.800781 L 227.023438 178.710938 L 225.265625 178.246094 L 223.601562 185.167969 L 228.046875 188.804688 L 226.585938 197.222656 L 219.125 200.574219 "/>
<path style=" stroke:none;fill-rule:nonzero;fill:rgb(13.729858%,12.159729%,12.548828%);fill-opacity:1;" d="M 204.636719 197.355469 L 204.445312 196.433594 L 211.839844 194.90625 L 212.976562 187.507812 L 213.917969 187.652344 L 212.679688 195.695312 L 204.636719 197.355469 "/>
<path style=" stroke:none;fill-rule:nonzero;fill:rgb(13.729858%,12.159729%,12.548828%);fill-opacity:1;" d="M 227.59375 189.464844 L 227.46875 188.527344 L 231.15625 188.035156 L 231.28125 188.972656 L 227.59375 189.464844 "/>
</g>
</svg>
