<?xml version="1.0" encoding="UTF-8"?>
<svg xmlns="http://www.w3.org/2000/svg" xmlns:xlink="http://www.w3.org/1999/xlink" width="375pt" height="374.999991pt" viewBox="0 0 375 374.999991" version="1.2">
<defs>
<clipPath id="clip1">
  <path d="M 111 111 L 265 111 L 265 281 L 111 281 Z M 111 111 "/>
</clipPath>
<clipPath id="clip2">
  <path d="M 91.515625 132.488281 L 242.792969 91.4375 L 283.84375 242.71875 L 132.5625 283.765625 Z M 91.515625 132.488281 "/>
</clipPath>
<clipPath id="clip3">
  <path d="M 91.515625 132.488281 L 242.792969 91.4375 L 283.84375 242.71875 L 132.5625 283.765625 Z M 91.515625 132.488281 "/>
</clipPath>
<clipPath id="clip4">
  <path d="M 91.515625 132.488281 L 243.078125 91.359375 L 284.203125 242.921875 L 132.640625 284.050781 Z M 91.515625 132.488281 "/>
</clipPath>
<clipPath id="clip5">
  <path d="M 125 124 L 251 124 L 251 257 L 125 257 Z M 125 124 "/>
</clipPath>
<clipPath id="clip6">
  <path d="M 91.515625 132.488281 L 242.792969 91.4375 L 283.84375 242.71875 L 132.5625 283.765625 Z M 91.515625 132.488281 "/>
</clipPath>
<clipPath id="clip7">
  <path d="M 91.515625 132.488281 L 242.792969 91.4375 L 283.84375 242.71875 L 132.5625 283.765625 Z M 91.515625 132.488281 "/>
</clipPath>
<clipPath id="clip8">
  <path d="M 91.515625 132.488281 L 243.078125 91.359375 L 284.203125 242.921875 L 132.640625 284.050781 Z M 91.515625 132.488281 "/>
</clipPath>
<clipPath id="clip9">
  <path d="M 147 159 L 230 159 L 230 217 L 147 217 Z M 147 159 "/>
</clipPath>
<clipPath id="clip10">
  <path d="M 91.515625 132.488281 L 242.792969 91.4375 L 283.84375 242.71875 L 132.5625 283.765625 Z M 91.515625 132.488281 "/>
</clipPath>
<clipPath id="clip11">
  <path d="M 91.515625 132.488281 L 242.792969 91.4375 L 283.84375 242.71875 L 132.5625 283.765625 Z M 91.515625 132.488281 "/>
</clipPath>
<clipPath id="clip12">
  <path d="M 91.515625 132.488281 L 243.078125 91.359375 L 284.203125 242.921875 L 132.640625 284.050781 Z M 91.515625 132.488281 "/>
</clipPath>
<clipPath id="clip13">
  <path d="M 109 109 L 267 109 L 267 283 L 109 283 Z M 109 109 "/>
</clipPath>
<clipPath id="clip14">
  <path d="M 91.515625 132.488281 L 242.792969 91.4375 L 283.84375 242.71875 L 132.5625 283.765625 Z M 91.515625 132.488281 "/>
</clipPath>
<clipPath id="clip15">
  <path d="M 91.515625 132.488281 L 242.792969 91.4375 L 283.84375 242.71875 L 132.5625 283.765625 Z M 91.515625 132.488281 "/>
</clipPath>
<clipPath id="clip16">
  <path d="M 91.515625 132.488281 L 243.078125 91.359375 L 284.203125 242.921875 L 132.640625 284.050781 Z M 91.515625 132.488281 "/>
</clipPath>
<clipPath id="clip17">
  <path d="M 145 158 L 231 158 L 231 218 L 145 218 Z M 145 158 "/>
</clipPath>
<clipPath id="clip18">
  <path d="M 91.515625 132.488281 L 242.792969 91.4375 L 283.84375 242.71875 L 132.5625 283.765625 Z M 91.515625 132.488281 "/>
</clipPath>
<clipPath id="clip19">
  <path d="M 91.515625 132.488281 L 242.792969 91.4375 L 283.84375 242.71875 L 132.5625 283.765625 Z M 91.515625 132.488281 "/>
</clipPath>
<clipPath id="clip20">
  <path d="M 91.515625 132.488281 L 243.078125 91.359375 L 284.203125 242.921875 L 132.640625 284.050781 Z M 91.515625 132.488281 "/>
</clipPath>
<clipPath id="clip21">
  <path d="M 125 124 L 251 124 L 251 258 L 125 258 Z M 125 124 "/>
</clipPath>
<clipPath id="clip22">
  <path d="M 91.515625 132.488281 L 242.792969 91.4375 L 283.84375 242.71875 L 132.5625 283.765625 Z M 91.515625 132.488281 "/>
</clipPath>
<clipPath id="clip23">
  <path d="M 91.515625 132.488281 L 242.792969 91.4375 L 283.84375 242.71875 L 132.5625 283.765625 Z M 91.515625 132.488281 "/>
</clipPath>
<clipPath id="clip24">
  <path d="M 91.515625 132.488281 L 243.078125 91.359375 L 284.203125 242.921875 L 132.640625 284.050781 Z M 91.515625 132.488281 "/>
</clipPath>
<clipPath id="clip25">
  <path d="M 194 125 L 215 125 L 215 133 L 194 133 Z M 194 125 "/>
</clipPath>
<clipPath id="clip26">
  <path d="M 91.515625 132.488281 L 242.792969 91.4375 L 283.84375 242.71875 L 132.5625 283.765625 Z M 91.515625 132.488281 "/>
</clipPath>
<clipPath id="clip27">
  <path d="M 91.515625 132.488281 L 242.792969 91.4375 L 283.84375 242.71875 L 132.5625 283.765625 Z M 91.515625 132.488281 "/>
</clipPath>
<clipPath id="clip28">
  <path d="M 91.515625 132.488281 L 243.078125 91.359375 L 284.203125 242.921875 L 132.640625 284.050781 Z M 91.515625 132.488281 "/>
</clipPath>
<clipPath id="clip29">
  <path d="M 143.609375 160.164062 L 235.109375 160.164062 L 235.109375 214.914062 L 143.609375 214.914062 Z M 143.609375 160.164062 "/>
</clipPath>
</defs>
<g id="surface1">
<g clip-path="url(#clip1)" clip-rule="nonzero">
<g clip-path="url(#clip2)" clip-rule="nonzero">
<g clip-path="url(#clip3)" clip-rule="nonzero">
<g clip-path="url(#clip4)" clip-rule="nonzero">
<path style=" stroke:none;fill-rule:nonzero;fill:rgb(100%,100%,100%);fill-opacity:1;" d="M 168.019531 114.164062 C 127.421875 125.179688 103.4375 167.023438 114.457031 207.621094 C 118.042969 220.835938 124.910156 232.277344 133.917969 241.335938 L 133.738281 278.371094 C 133.730469 280.113281 135.621094 281.199219 137.121094 280.308594 L 168.984375 261.433594 C 181.355469 264.628906 194.699219 264.773438 207.914062 261.1875 C 248.515625 250.171875 272.496094 208.328125 261.476562 167.730469 C 250.460938 127.128906 208.621094 103.148438 168.019531 114.164062 Z M 168.019531 114.164062 "/>
</g>
</g>
</g>
</g>
<g clip-path="url(#clip5)" clip-rule="nonzero">
<g clip-path="url(#clip6)" clip-rule="nonzero">
<g clip-path="url(#clip7)" clip-rule="nonzero">
<g clip-path="url(#clip8)" clip-rule="nonzero">
<path style=" stroke:none;fill-rule:nonzero;fill:rgb(37.649536%,74.508667%,57.249451%);fill-opacity:1;" d="M 171.539062 127.136719 C 138.105469 136.210938 118.355469 170.667969 127.429688 204.101562 C 131.019531 217.339844 138.597656 228.417969 148.507812 236.425781 L 148.40625 256.699219 L 165.851562 246.363281 C 177.769531 250.867188 191.160156 251.804688 204.394531 248.214844 C 237.828125 239.140625 257.578125 204.683594 248.503906 171.25 C 239.433594 137.8125 204.976562 118.066406 171.539062 127.136719 Z M 171.539062 127.136719 "/>
</g>
</g>
</g>
</g>
<g clip-path="url(#clip9)" clip-rule="nonzero">
<g clip-path="url(#clip10)" clip-rule="nonzero">
<g clip-path="url(#clip11)" clip-rule="nonzero">
<g clip-path="url(#clip12)" clip-rule="nonzero">
<path style=" stroke:none;fill-rule:nonzero;fill:rgb(100%,100%,100%);fill-opacity:1;" d="M 162.203125 162.050781 C 160.082031 159.433594 158.675781 159.753906 157.40625 160.050781 C 156.367188 160.285156 155.199219 160.605469 154.027344 160.921875 C 152.871094 161.234375 151.082031 162.191406 149.960938 164.414062 C 148.824219 166.625 145.453125 172.160156 147.828125 180.917969 C 150.199219 189.65625 158.800781 196.410156 159.988281 197.359375 C 161.1875 198.292969 177.492188 213.769531 197.261719 216.058594 C 213.695312 217.949219 216.398438 215.960938 219.527344 214.796875 C 222.667969 213.617188 228.753906 207.671875 229.085938 203.117188 C 229.417969 198.578125 228.453125 195.019531 227.820312 194.390625 C 227.183594 193.765625 225.894531 193.640625 223.886719 193.226562 C 221.894531 192.808594 212.101562 190.859375 210.320312 190.699219 C 208.554688 190.546875 207.304688 190.574219 206.617188 192.660156 C 205.925781 194.75 203.648438 199.675781 202.941406 201.140625 C 202.238281 202.605469 201.265625 203.027344 199.265625 202.625 C 197.273438 202.207031 191.113281 201.867188 182.761719 197.625 C 176.265625 194.328125 171.160156 189.472656 169.648438 187.964844 C 168.140625 186.472656 168.792969 185.257812 169.429688 184.125 C 170.011719 183.121094 170.628906 181.566406 171.226562 180.292969 C 171.8125 179.015625 171.902344 178.207031 172.175781 176.859375 C 172.429688 175.515625 171.859375 174.554688 171.183594 173.78125 C 170.511719 173 164.714844 165.140625 162.203125 162.050781 Z M 162.203125 162.050781 "/>
</g>
</g>
</g>
</g>
<g clip-path="url(#clip13)" clip-rule="nonzero">
<g clip-path="url(#clip14)" clip-rule="nonzero">
<g clip-path="url(#clip15)" clip-rule="nonzero">
<g clip-path="url(#clip16)" clip-rule="nonzero">
<path style=" stroke:none;fill-rule:nonzero;fill:rgb(12.159729%,12.939453%,16.859436%);fill-opacity:1;" d="M 137.132812 282.71875 C 136.007812 283.023438 134.804688 282.875 133.753906 282.269531 C 132.332031 281.457031 131.492188 279.996094 131.5 278.363281 L 131.675781 242.25 C 122.460938 232.757812 115.765625 221.007812 112.292969 208.210938 C 100.972656 166.484375 125.707031 123.324219 167.433594 112.003906 C 209.160156 100.679688 252.316406 125.414062 263.640625 167.140625 C 274.960938 208.867188 250.226562 252.027344 208.5 263.347656 C 195.703125 266.820312 182.179688 266.984375 169.332031 263.832031 L 138.261719 282.238281 C 137.902344 282.453125 137.523438 282.613281 137.132812 282.71875 Z M 168.398438 259.273438 C 168.769531 259.171875 169.167969 259.167969 169.546875 259.265625 C 181.910156 262.460938 194.976562 262.375 207.328125 259.023438 C 246.667969 248.351562 269.992188 207.65625 259.316406 168.316406 C 248.640625 128.972656 207.949219 105.652344 168.605469 116.328125 C 129.265625 127 105.941406 167.695312 116.617188 207.035156 C 119.96875 219.386719 126.5 230.703125 135.507812 239.757812 C 135.929688 240.179688 136.164062 240.75 136.160156 241.347656 L 135.980469 278.386719 L 167.84375 259.507812 C 168.019531 259.402344 168.207031 259.324219 168.398438 259.273438 Z M 168.398438 259.273438 "/>
</g>
</g>
</g>
</g>
<g clip-path="url(#clip17)" clip-rule="nonzero">
<g clip-path="url(#clip18)" clip-rule="nonzero">
<g clip-path="url(#clip19)" clip-rule="nonzero">
<g clip-path="url(#clip20)" clip-rule="nonzero">
<path style=" stroke:none;fill-rule:nonzero;fill:rgb(12.159729%,12.939453%,16.859436%);fill-opacity:1;" d="M 216.316406 217.144531 C 213.261719 217.972656 208.292969 218.453125 197.136719 217.171875 C 185.183594 215.789062 171.929688 209.222656 159.824219 198.691406 C 159.566406 198.46875 159.390625 198.3125 159.300781 198.246094 C 156.203125 195.769531 148.941406 189.289062 146.75 181.207031 C 144.402344 172.554688 147.445312 166.792969 148.742188 164.328125 L 148.964844 163.902344 C 150.425781 161.007812 152.785156 160.097656 153.734375 159.839844 C 154.921875 159.519531 156.105469 159.195312 157.160156 158.960938 C 158.84375 158.566406 160.699219 158.425781 163.070312 161.347656 C 164.5625 163.179688 167.144531 166.605469 169.21875 169.355469 C 170.535156 171.101562 171.78125 172.753906 172.03125 173.042969 C 172.742188 173.859375 173.640625 175.164062 173.277344 177.066406 L 173.160156 177.683594 C 172.957031 178.734375 172.796875 179.566406 172.25 180.757812 C 172.050781 181.183594 171.855469 181.628906 171.65625 182.074219 C 171.246094 183.003906 170.820312 183.960938 170.402344 184.6875 C 169.773438 185.800781 169.550781 186.292969 170.441406 187.167969 C 172.25 188.972656 177.113281 193.503906 183.269531 196.628906 C 190.074219 200.085938 195.300781 200.875 198.109375 201.300781 C 198.6875 201.386719 199.152344 201.457031 199.496094 201.53125 C 201.167969 201.867188 201.519531 201.519531 201.933594 200.65625 C 202.671875 199.125 204.898438 194.296875 205.554688 192.3125 C 206.5625 189.253906 208.882812 189.453125 210.414062 189.585938 C 212.359375 189.757812 222.554688 191.804688 224.117188 192.132812 L 225.199219 192.34375 C 226.738281 192.640625 227.847656 192.851562 228.605469 193.597656 C 229.640625 194.621094 230.527344 198.730469 230.199219 203.203125 C 229.816406 208.414062 223.210938 214.609375 219.921875 215.847656 C 219.621094 215.960938 219.335938 216.074219 219.039062 216.195312 C 218.25 216.507812 217.402344 216.847656 216.316406 217.144531 Z M 154.382812 161.984375 C 153.839844 162.128906 152.09375 162.671875 150.964844 164.914062 L 150.726562 165.371094 C 149.449219 167.789062 146.796875 172.820312 148.914062 180.621094 C 150.933594 188.0625 157.777344 194.15625 160.625 196.433594 C 160.78125 196.554688 160.988281 196.734375 161.296875 197 C 173.0625 207.242188 185.882812 213.613281 197.394531 214.945312 C 211.957031 216.621094 215.421875 215.230469 218.207031 214.109375 C 218.519531 213.980469 218.828125 213.859375 219.136719 213.746094 C 221.859375 212.71875 227.667969 207.113281 227.96875 203.035156 C 228.277344 198.835938 227.394531 195.660156 227.007812 195.160156 C 226.761719 194.921875 225.847656 194.746094 224.78125 194.542969 L 223.660156 194.320312 C 221.335938 193.832031 211.867188 191.957031 210.21875 191.8125 C 208.507812 191.667969 208.097656 191.757812 207.679688 193.011719 C 206.9375 195.265625 204.515625 200.460938 203.953125 201.625 C 202.753906 204.117188 200.699219 204.054688 199.046875 203.722656 C 198.722656 203.65625 198.296875 203.589844 197.777344 203.511719 C 195.054688 203.101562 189.386719 202.246094 182.261719 198.621094 C 175.816406 195.351562 170.746094 190.632812 168.867188 188.753906 C 166.730469 186.640625 167.855469 184.644531 168.460938 183.574219 C 168.835938 182.917969 169.226562 182.039062 169.613281 181.164062 C 169.816406 180.703125 170.019531 180.242188 170.21875 179.8125 C 170.652344 178.875 170.777344 178.230469 170.964844 177.253906 L 171.085938 176.632812 C 171.226562 175.894531 171.011719 175.273438 170.347656 174.507812 C 170.054688 174.175781 169.101562 172.910156 167.433594 170.703125 C 165.371094 167.964844 162.800781 164.558594 161.335938 162.757812 L 161.335938 162.753906 C 159.648438 160.671875 158.773438 160.878906 157.664062 161.140625 C 156.648438 161.367188 155.519531 161.675781 154.382812 161.984375 Z M 154.382812 161.984375 "/>
</g>
</g>
</g>
</g>
<g clip-path="url(#clip21)" clip-rule="nonzero">
<g clip-path="url(#clip22)" clip-rule="nonzero">
<g clip-path="url(#clip23)" clip-rule="nonzero">
<g clip-path="url(#clip24)" clip-rule="nonzero">
<path style=" stroke:none;fill-rule:nonzero;fill:rgb(12.159729%,12.939453%,16.859436%);fill-opacity:1;" d="M 204.394531 248.214844 C 192.078125 251.558594 179.234375 251.085938 167.214844 246.855469 L 148.980469 257.660156 C 148.628906 257.871094 148.199219 257.867188 147.851562 257.667969 C 147.503906 257.46875 147.285156 257.09375 147.289062 256.691406 L 147.390625 235.5 C 137.667969 227.265625 130.769531 216.421875 127.429688 204.101562 C 118.371094 170.722656 138.160156 136.195312 171.539062 127.136719 C 177.105469 125.628906 182.871094 124.890625 188.671875 124.957031 C 189.292969 124.960938 189.789062 125.46875 189.785156 126.085938 C 189.777344 126.703125 189.261719 127.203125 188.652344 127.195312 C 183.054688 127.136719 177.492188 127.84375 172.125 129.300781 C 139.9375 138.035156 120.855469 171.328125 129.589844 203.515625 C 132.859375 215.558594 139.648438 226.140625 149.230469 234.117188 C 149.488281 234.332031 149.636719 234.648438 149.632812 234.984375 L 149.535156 254.726562 L 166.523438 244.664062 C 166.804688 244.488281 167.160156 244.460938 167.472656 244.570312 C 179.203125 248.808594 191.765625 249.320312 203.808594 246.050781 C 235.996094 237.316406 255.078125 204.023438 246.34375 171.835938 C 242.128906 156.308594 232.132812 143.332031 218.195312 135.285156 C 217.660156 134.976562 217.472656 134.289062 217.785156 133.757812 C 218.09375 133.222656 218.777344 133.035156 219.3125 133.34375 C 233.769531 141.6875 244.136719 155.148438 248.503906 171.25 C 257.5625 204.628906 237.773438 239.15625 204.394531 248.214844 Z M 204.394531 248.214844 "/>
</g>
</g>
</g>
</g>
<g clip-path="url(#clip25)" clip-rule="nonzero">
<g clip-path="url(#clip26)" clip-rule="nonzero">
<g clip-path="url(#clip27)" clip-rule="nonzero">
<g clip-path="url(#clip28)" clip-rule="nonzero">
<path style=" stroke:none;fill-rule:nonzero;fill:rgb(12.159729%,12.939453%,16.859436%);fill-opacity:1;" d="M 203.394531 129.042969 C 203.214844 129.09375 203.019531 129.097656 202.824219 129.050781 C 200.421875 128.4375 197.996094 127.972656 195.613281 127.667969 C 195 127.589844 194.570312 127.03125 194.644531 126.414062 C 194.722656 125.804688 195.285156 125.363281 195.898438 125.445312 C 198.371094 125.765625 200.890625 126.246094 203.378906 126.878906 C 203.976562 127.03125 204.339844 127.640625 204.1875 128.242188 C 204.085938 128.644531 203.769531 128.941406 203.394531 129.042969 Z M 213.652344 132.625 C 213.410156 132.6875 213.144531 132.675781 212.898438 132.5625 C 211.257812 131.820312 209.539062 131.136719 207.785156 130.527344 C 207.199219 130.324219 206.894531 129.6875 207.09375 129.101562 C 207.296875 128.519531 207.941406 128.214844 208.519531 128.410156 C 210.335938 129.039062 212.121094 129.75 213.820312 130.519531 C 214.382812 130.777344 214.632812 131.441406 214.375 132.003906 C 214.234375 132.324219 213.960938 132.539062 213.652344 132.625 Z M 213.652344 132.625 "/>
</g>
</g>
</g>
</g>
<path style=" stroke:none;fill-rule:nonzero;fill:rgb(37.649536%,74.508667%,57.249451%);fill-opacity:1;" d="M 188.871094 130.316406 C 187.246094 130.332031 185.628906 130.429688 184.015625 130.605469 C 182.402344 130.777344 180.800781 131.03125 179.210938 131.363281 C 177.625 131.699219 176.054688 132.105469 174.507812 132.59375 C 172.957031 133.078125 171.4375 133.640625 169.945312 134.277344 C 168.453125 134.914062 166.992188 135.621094 165.570312 136.398438 C 164.144531 137.179688 162.761719 138.023438 161.421875 138.941406 C 160.082031 139.855469 158.789062 140.832031 157.546875 141.875 C 156.300781 142.917969 155.109375 144.019531 153.972656 145.175781 C 152.839844 146.335938 151.761719 147.546875 150.742188 148.8125 C 149.726562 150.078125 148.773438 151.386719 147.886719 152.746094 C 146.996094 154.105469 146.175781 155.503906 145.425781 156.941406 C 144.675781 158.378906 143.996094 159.851562 143.390625 161.359375 C 142.785156 162.863281 142.253906 164.394531 141.796875 165.953125 C 141.339844 167.511719 140.964844 169.085938 140.664062 170.683594 C 140.363281 172.277344 140.140625 173.882812 139.996094 175.5 C 139.851562 177.117188 139.789062 178.734375 139.804688 180.359375 C 139.820312 181.980469 139.917969 183.601562 140.09375 185.214844 C 140.265625 186.828125 140.519531 188.429688 140.851562 190.015625 C 141.183594 191.605469 141.59375 193.171875 142.082031 194.722656 C 142.566406 196.269531 143.128906 197.792969 143.765625 199.285156 C 144.398438 200.777344 145.105469 202.238281 145.886719 203.660156 C 146.664062 205.082031 147.511719 206.464844 148.425781 207.804688 C 149.34375 209.148438 150.320312 210.441406 151.363281 211.683594 C 152.40625 212.929688 153.503906 214.117188 154.664062 215.253906 C 155.824219 216.390625 157.035156 217.46875 158.300781 218.484375 C 159.5625 219.503906 160.875 220.457031 162.234375 221.34375 C 163.59375 222.230469 164.992188 223.050781 166.429688 223.800781 C 167.867188 224.554688 169.339844 225.230469 170.847656 225.839844 C 172.351562 226.445312 173.882812 226.976562 175.441406 227.433594 C 177 227.886719 178.574219 228.265625 180.167969 228.566406 C 181.765625 228.867188 183.371094 229.089844 184.988281 229.234375 C 186.605469 229.375 188.222656 229.441406 189.847656 229.425781 C 191.46875 229.40625 193.085938 229.3125 194.699219 229.136719 C 196.316406 228.960938 197.914062 228.707031 199.503906 228.375 C 201.09375 228.042969 202.660156 227.636719 204.210938 227.148438 C 205.757812 226.660156 207.277344 226.101562 208.773438 225.464844 C 210.265625 224.828125 211.722656 224.121094 213.148438 223.34375 C 214.570312 222.5625 215.953125 221.714844 217.292969 220.800781 C 218.636719 219.886719 219.925781 218.910156 221.171875 217.867188 C 222.417969 216.824219 223.605469 215.722656 224.742188 214.566406 C 225.878906 213.40625 226.957031 212.195312 227.972656 210.929688 C 228.988281 209.664062 229.941406 208.355469 230.832031 206.996094 C 231.71875 205.636719 232.539062 204.238281 233.289062 202.800781 C 234.042969 201.359375 234.71875 199.890625 235.324219 198.382812 C 235.933594 196.878906 236.464844 195.347656 236.917969 193.789062 C 237.375 192.230469 237.753906 190.65625 238.054688 189.058594 C 238.355469 187.464844 238.578125 185.859375 238.71875 184.242188 C 238.863281 182.625 238.925781 181.007812 238.910156 179.382812 C 238.894531 177.761719 238.800781 176.140625 238.625 174.527344 C 238.449219 172.914062 238.195312 171.3125 237.863281 169.726562 C 237.53125 168.136719 237.121094 166.566406 236.636719 165.019531 C 236.148438 163.472656 235.589844 161.949219 234.953125 160.457031 C 234.316406 158.964844 233.609375 157.503906 232.832031 156.082031 C 232.050781 154.65625 231.203125 153.277344 230.289062 151.933594 C 229.375 150.59375 228.394531 149.300781 227.355469 148.058594 C 226.3125 146.8125 225.210938 145.621094 224.054688 144.488281 C 222.894531 143.351562 221.683594 142.273438 220.417969 141.257812 C 219.152344 140.238281 217.839844 139.285156 216.484375 138.398438 C 215.125 137.507812 213.726562 136.691406 212.289062 135.9375 C 210.847656 135.1875 209.375 134.507812 207.871094 133.902344 C 206.367188 133.296875 204.832031 132.765625 203.277344 132.308594 C 201.71875 131.855469 200.140625 131.476562 198.546875 131.175781 C 196.953125 130.875 195.347656 130.652344 193.730469 130.507812 C 192.113281 130.367188 190.492188 130.300781 188.871094 130.316406 Z M 188.871094 130.316406 "/>
<g clip-path="url(#clip29)" clip-rule="nonzero">
<path style=" stroke:none;fill-rule:nonzero;fill:rgb(0%,0%,0%);fill-opacity:1;" d="M 181.566406 160.164062 C 164.53125 160.164062 150.59375 174.261719 150.59375 191.46875 L 150.59375 193.363281 C 150.59375 193.4375 150.601562 193.511719 150.617188 193.585938 C 150.605469 193.742188 150.59375 193.898438 150.59375 194.058594 C 150.59375 196.667969 149.535156 199.160156 148.160156 201.136719 C 146.78125 203.113281 145.0625 204.566406 143.929688 205.070312 C 143.820312 205.117188 143.738281 205.199219 143.6875 205.304688 C 143.632812 205.414062 143.621094 205.527344 143.652344 205.644531 C 143.679688 205.761719 143.746094 205.855469 143.839844 205.925781 C 143.9375 206 144.046875 206.03125 144.167969 206.023438 C 144.207031 206.019531 144.289062 205.980469 144.332031 205.976562 L 144.335938 205.980469 C 144.335938 205.980469 144.339844 205.972656 144.34375 205.972656 C 145.789062 205.824219 148.289062 204.898438 150.855469 203.265625 C 151.558594 202.820312 152.253906 202.324219 152.917969 201.777344 L 152.691406 202.230469 C 152.570312 202.464844 152.546875 202.710938 152.621094 202.964844 L 152.972656 204.148438 C 152.984375 204.246094 153.003906 204.296875 153.023438 204.378906 C 153.054688 204.503906 153.101562 204.648438 153.160156 204.824219 C 153.28125 205.167969 153.464844 205.621094 153.738281 206.144531 C 154.28125 207.191406 155.179688 208.53125 156.609375 209.851562 C 159.464844 212.488281 164.429688 214.996094 172.65625 214.996094 C 175.257812 214.996094 177.429688 212.921875 177.429688 210.347656 C 177.429688 209.03125 176.777344 207.886719 175.84375 207.148438 C 174.910156 206.410156 173.710938 206.023438 172.460938 206.023438 C 168.023438 206.023438 165.582031 205.035156 164.164062 204.03125 L 197.941406 204.03125 C 197.40625 205.011719 196.859375 205.898438 196.351562 206.53125 C 196.351562 206.53125 196.347656 206.535156 196.34375 206.539062 C 194.738281 208.597656 195.222656 211.488281 197.253906 213.0625 C 197.257812 213.0625 197.261719 213.066406 197.265625 213.070312 C 198.171875 213.746094 199.164062 214 200.0625 214 C 201.492188 214 202.855469 213.308594 203.773438 212.164062 C 203.800781 212.128906 203.824219 212.09375 203.847656 212.054688 C 203.90625 211.960938 204.414062 211.234375 205.035156 210.285156 C 205.65625 209.332031 206.4375 208.082031 207.199219 206.640625 C 207.621094 205.84375 208.035156 204.992188 208.421875 204.101562 C 218.238281 201.785156 224.914062 195.359375 229.089844 188.363281 C 233.339844 181.246094 235.078125 173.566406 235.074219 168.636719 C 235.074219 167.617188 234.449219 166.792969 233.714844 166.242188 C 232.984375 165.691406 232.089844 165.308594 231.15625 165.007812 C 229.289062 164.40625 227.292969 164.152344 226.132812 164.152344 C 224.242188 164.152344 222.382812 164.441406 220.828125 165.585938 C 219.273438 166.726562 218.148438 168.652344 217.53125 171.570312 L 217.53125 171.5625 C 216.359375 176.851562 214.1875 179.96875 211.015625 181.957031 C 206.992188 169.3125 195.316406 160.164062 181.566406 160.164062 Z M 181.566406 162.15625 C 183.933594 162.15625 186.230469 162.453125 188.429688 163 L 186.496094 167.265625 L 185.667969 167.65625 C 185.539062 167.710938 185.449219 167.804688 185.402344 167.933594 C 185.351562 168.066406 185.355469 168.195312 185.414062 168.324219 C 185.472656 168.449219 185.570312 168.539062 185.703125 168.582031 C 185.835938 168.628906 185.964844 168.621094 186.089844 168.558594 L 186.78125 168.234375 L 199.539062 180.074219 L 198.488281 180.914062 C 198.382812 181 198.320312 181.113281 198.304688 181.25 C 198.289062 181.386719 198.324219 181.507812 198.410156 181.617188 C 198.496094 181.726562 198.609375 181.789062 198.746094 181.800781 C 198.882812 181.816406 199.003906 181.78125 199.109375 181.695312 L 200.152344 180.859375 L 204.242188 188.257812 C 201.949219 190.496094 199.367188 192.511719 196.546875 194.277344 L 194.292969 188.398438 C 194.21875 188.183594 194.066406 188.074219 193.839844 188.070312 C 193.820312 188.070312 193.804688 188.070312 193.789062 188.074219 C 193.710938 188.078125 193.636719 188.101562 193.570312 188.144531 C 193.5 188.1875 193.445312 188.238281 193.40625 188.308594 C 193.363281 188.375 193.339844 188.449219 193.332031 188.527344 C 193.324219 188.605469 193.335938 188.683594 193.367188 188.757812 L 195.6875 194.8125 C 193.886719 195.890625 191.988281 196.867188 190.015625 197.730469 L 188.917969 198.046875 L 183.832031 198.046875 L 182.988281 190.378906 L 193.011719 186.550781 C 193.0625 186.53125 193.105469 186.507812 193.148438 186.472656 L 197.125 183.289062 C 197.3125 183.140625 197.371094 182.953125 197.289062 182.726562 C 197.210938 182.5 197.050781 182.390625 196.808594 182.394531 C 196.691406 182.398438 196.589844 182.4375 196.503906 182.507812 L 192.585938 185.648438 L 182.871094 189.359375 L 180.40625 173.546875 C 180.390625 173.425781 180.335938 173.324219 180.246094 173.242188 C 180.15625 173.164062 180.050781 173.121094 179.929688 173.117188 C 179.914062 173.117188 179.894531 173.117188 179.878906 173.117188 C 179.734375 173.128906 179.613281 173.191406 179.523438 173.308594 C 179.433594 173.425781 179.398438 173.554688 179.425781 173.699219 L 181.894531 189.546875 L 172.242188 189.078125 L 162.289062 187.683594 L 163.246094 185.8125 C 163.335938 185.644531 163.332031 185.476562 163.230469 185.316406 C 163.128906 185.152344 162.980469 185.074219 162.789062 185.082031 C 162.59375 185.089844 162.449219 185.183594 162.363281 185.359375 L 161.3125 187.40625 L 153.695312 183.460938 C 155.597656 176.730469 159.839844 170.984375 165.453125 167.160156 L 169.847656 170.761719 L 164.917969 180.375 C 164.847656 180.496094 164.835938 180.625 164.875 180.761719 C 164.914062 180.898438 165 180.996094 165.125 181.0625 C 165.25 181.128906 165.378906 181.136719 165.511719 181.089844 C 165.644531 181.042969 165.742188 180.957031 165.800781 180.828125 L 170.769531 171.148438 L 179.390625 171.628906 C 179.472656 171.632812 179.554688 171.617188 179.628906 171.582031 L 184.101562 169.488281 C 184.230469 169.433594 184.320312 169.339844 184.371094 169.207031 C 184.417969 169.078125 184.414062 168.949219 184.355469 168.820312 C 184.296875 168.691406 184.199219 168.605469 184.066406 168.558594 C 183.9375 168.515625 183.808594 168.523438 183.679688 168.585938 L 179.320312 170.625 L 170.664062 170.144531 L 166.328125 166.585938 C 170.761719 163.789062 175.980469 162.15625 181.566406 162.15625 Z M 189.398438 163.277344 C 195.8125 165.113281 201.332031 169.140625 205.113281 174.53125 L 200.285156 179.410156 L 187.476562 167.519531 Z M 226.136719 166.144531 C 226.964844 166.144531 228.9375 166.386719 230.546875 166.90625 C 231.351562 167.167969 232.074219 167.5 232.523438 167.835938 C 232.96875 168.175781 233.085938 168.414062 233.085938 168.636719 C 233.089844 173.082031 231.429688 180.566406 227.386719 187.339844 C 223.601562 193.675781 217.792969 199.40625 209.300781 201.820312 C 209.859375 200.117188 210.230469 198.328125 210.230469 196.550781 C 210.230469 195.800781 210.152344 195.074219 209.84375 194.394531 C 209.539062 193.710938 208.992188 193.121094 208.265625 192.703125 C 207.195312 192.085938 205.753906 191.738281 203.679688 191.507812 C 206.054688 189.457031 208.183594 187.191406 210.023438 184.742188 C 214.679688 182.601562 217.996094 178.671875 219.472656 171.992188 C 219.472656 171.988281 219.472656 171.988281 219.472656 171.984375 C 220.027344 169.367188 220.929688 167.984375 222.003906 167.195312 C 223.078125 166.40625 224.449219 166.148438 226.136719 166.144531 Z M 225.636719 168.140625 C 223.726562 168.140625 222.160156 169.710938 222.160156 171.628906 C 222.160156 173.546875 223.726562 175.117188 225.636719 175.117188 C 227.546875 175.117188 229.117188 173.546875 229.117188 171.628906 C 229.117188 169.710938 227.546875 168.140625 225.636719 168.140625 Z M 225.636719 169.136719 C 225.824219 169.136719 226.003906 169.160156 226.179688 169.199219 C 225.542969 169.371094 225.140625 169.898438 225.140625 170.632812 C 225.140625 171.53125 225.738281 172.128906 226.632812 172.128906 C 227.363281 172.128906 227.890625 171.722656 228.058594 171.085938 C 228.097656 171.261719 228.121094 171.441406 228.121094 171.628906 C 228.121094 173.003906 227.007812 174.121094 225.636719 174.121094 C 224.269531 174.121094 223.152344 173.003906 223.152344 171.628906 C 223.152344 170.257812 224.269531 169.136719 225.636719 169.136719 Z M 205.667969 175.386719 C 207.105469 177.59375 208.28125 180.003906 209.097656 182.574219 C 207.871094 184.316406 206.484375 185.96875 204.96875 187.523438 L 200.917969 180.1875 Z M 164.324219 182.089844 C 164.125 182.097656 163.984375 182.191406 163.898438 182.367188 L 163.386719 183.363281 C 163.316406 183.488281 163.300781 183.617188 163.339844 183.753906 C 163.382812 183.886719 163.464844 183.988281 163.589844 184.054688 C 163.714844 184.117188 163.84375 184.128906 163.980469 184.082031 C 164.113281 184.035156 164.207031 183.949219 164.269531 183.820312 L 164.78125 182.824219 C 164.871094 182.652344 164.863281 182.488281 164.761719 182.324219 C 164.660156 182.160156 164.515625 182.082031 164.324219 182.089844 Z M 153.429688 184.445312 L 160.964844 188.347656 L 159.324219 196.15625 L 152.582031 192.746094 L 152.582031 191.46875 C 152.582031 189.050781 152.878906 186.699219 153.429688 184.445312 Z M 161.917969 188.636719 L 171.421875 189.96875 L 170.574219 198.046875 L 163.066406 198.046875 L 160.242188 196.621094 Z M 172.410156 190.085938 L 182.007812 190.554688 L 182.832031 198.046875 L 171.574219 198.046875 Z M 201.445312 193.324219 C 204.585938 193.539062 206.433594 193.945312 207.273438 194.429688 C 207.710938 194.683594 207.898438 194.910156 208.035156 195.214844 C 208.171875 195.519531 208.242188 195.949219 208.242188 196.550781 C 208.242188 199.554688 206.898438 202.964844 205.445312 205.703125 C 204.71875 207.070312 203.972656 208.273438 203.375 209.191406 C 202.808594 210.054688 202.445312 210.554688 202.21875 210.917969 C 201.667969 211.601562 200.832031 212.003906 200.0625 212.003906 C 199.496094 212.003906 199.023438 211.890625 198.464844 211.476562 C 197.195312 210.488281 196.945312 209 197.910156 207.769531 C 199.5 205.78125 201.273438 202.40625 202.234375 199.34375 C 202.28125 199.195312 202.292969 199.039062 202.265625 198.882812 C 202.238281 198.726562 202.179688 198.582031 202.085938 198.457031 C 201.992188 198.328125 201.875 198.226562 201.734375 198.15625 C 201.59375 198.085938 201.445312 198.046875 201.285156 198.046875 L 193.980469 198.046875 C 196.636719 196.671875 199.136719 195.089844 201.445312 193.324219 Z M 151.566406 194.46875 L 155.589844 196.503906 L 154.324219 199 C 153.207031 200.332031 151.789062 201.492188 150.324219 202.421875 C 149.105469 203.195312 147.863281 203.792969 146.777344 204.230469 C 147.527344 203.527344 148.285156 202.695312 148.972656 201.707031 C 150.371094 199.707031 151.464844 197.1875 151.566406 194.46875 Z M 157.363281 197.398438 L 162.265625 199.875 L 160.820312 202.574219 C 160.625 202.945312 160.648438 203.300781 160.898438 203.640625 C 161.972656 205.09375 165.03125 208.019531 172.460938 208.019531 C 173.289062 208.019531 174.078125 208.292969 174.613281 208.714844 C 175.148438 209.136719 175.441406 209.660156 175.441406 210.347656 C 175.441406 211.792969 174.210938 213.003906 172.65625 213.003906 C 164.824219 213.003906 160.4375 210.675781 157.957031 208.382812 C 156.714844 207.238281 155.953125 206.089844 155.5 205.222656 C 155.273438 204.785156 155.125 204.421875 155.035156 204.167969 C 154.992188 204.042969 154.964844 203.941406 154.949219 203.882812 C 154.933594 203.824219 154.949219 203.679688 154.949219 203.960938 C 154.949219 203.863281 154.933594 203.769531 154.90625 203.675781 L 154.640625 202.78125 Z M 164.433594 200.042969 L 199.789062 200.042969 C 199.402344 201.050781 198.941406 202.066406 198.457031 203.03125 L 163.027344 203.03125 C 162.988281 202.992188 162.9375 202.941406 162.902344 202.902344 Z M 164.433594 200.042969 "/>
</g>
</g>
</svg>
