<?xml version="1.0" encoding="UTF-8"?>
<svg xmlns="http://www.w3.org/2000/svg" xmlns:xlink="http://www.w3.org/1999/xlink" width="375pt" height="374.999991pt" viewBox="0 0 375 374.999991" version="1.2">
<defs>
<clipPath id="clip1">
  <path d="M 46.304688 46 L 319 46 L 319 343 L 46.304688 343 Z M 46.304688 46 "/>
</clipPath>
<clipPath id="clip2">
  <path d="M 52 51 L 329.054688 51 L 329.054688 350.671875 L 52 350.671875 Z M 52 51 "/>
</clipPath>
</defs>
<g id="surface1">
<g clip-path="url(#clip1)" clip-rule="nonzero">
<path style=" stroke:none;fill-rule:nonzero;fill:rgb(0%,0%,0%);fill-opacity:1;" d="M 316.75 225.917969 L 318.46875 71.925781 C 318.46875 54.597656 297.28125 45.472656 285.203125 46.121094 L 67.699219 84.425781 C 56.089844 86.671875 46.34375 95.378906 46.984375 107.445312 L 53.730469 225.945312 C 54.375 238.011719 65.902344 254.75 77.980469 254.105469 L 109.289062 255.183594 C 108.609375 292.140625 80.164062 342.628906 80.164062 342.628906 C 80.164062 342.628906 144.707031 262.273438 149.667969 247.402344 L 296.035156 248.9375 C 308.125 248.296875 317.398438 237.992188 316.75 225.917969 "/>
</g>
<path style=" stroke:none;fill-rule:nonzero;fill:rgb(100%,100%,100%);fill-opacity:1;" d="M 325.878906 234.429688 L 317.378906 75.320312 C 316.734375 63.25 306.414062 53.988281 294.328125 54.632812 L 76.832031 92.933594 C 64.933594 94.875 55.472656 103.886719 56.117188 115.953125 L 62.863281 234.457031 C 63.511719 246.53125 73.832031 255.789062 85.914062 255.144531 L 125.824219 255.5625 C 122.34375 290.261719 90.632812 331.875 90.632812 331.875 C 90.632812 331.875 149.148438 284.871094 158.792969 255.90625 L 305.167969 257.449219 C 317.25 256.808594 326.53125 246.5 325.878906 234.429688 "/>
<g clip-path="url(#clip2)" clip-rule="nonzero">
<path style=" stroke:none;fill-rule:nonzero;fill:rgb(0%,0%,0%);fill-opacity:1;" d="M 325.878906 234.429688 L 329.046875 234.261719 L 320.542969 75.148438 C 320.191406 68.480469 317.238281 62.53125 312.726562 58.28125 C 308.222656 54.027344 302.132812 51.433594 295.515625 51.433594 C 295.066406 51.433594 294.613281 51.445312 294.164062 51.46875 L 293.96875 51.480469 L 76.28125 89.816406 L 76.832031 92.933594 L 76.324219 89.808594 C 69.949219 90.855469 64.160156 93.71875 59.886719 98.039062 C 57.753906 100.199219 56.007812 102.722656 54.796875 105.550781 C 53.582031 108.375 52.917969 111.496094 52.921875 114.785156 C 52.921875 115.226562 52.929688 115.671875 52.957031 116.132812 L 59.699219 234.636719 L 59.699219 234.625 C 60.050781 241.292969 63.007812 247.242188 67.511719 251.492188 C 72.015625 255.746094 78.109375 258.339844 84.722656 258.339844 C 85.175781 258.339844 85.625 258.328125 86.082031 258.304688 L 85.914062 255.144531 L 85.882812 258.308594 L 125.792969 258.726562 L 125.824219 255.5625 L 122.671875 255.242188 C 121.847656 263.507812 119.300781 272.371094 115.910156 280.964844 C 110.824219 293.859375 103.855469 306.160156 98.167969 315.195312 C 95.324219 319.710938 92.796875 323.417969 90.992188 325.984375 C 90.089844 327.269531 89.363281 328.269531 88.867188 328.945312 C 88.617188 329.285156 88.425781 329.539062 88.300781 329.710938 C 88.238281 329.796875 88.191406 329.859375 88.15625 329.898438 L 88.113281 329.957031 L 72.398438 350.585938 L 92.621094 334.339844 C 92.667969 334.300781 107.355469 322.507812 123.308594 307.019531 C 131.285156 299.273438 139.582031 290.609375 146.542969 281.980469 C 150.023438 277.664062 153.175781 273.355469 155.789062 269.15625 C 158.402344 264.953125 160.484375 260.859375 161.800781 256.902344 L 158.792969 255.90625 L 158.761719 259.070312 L 305.234375 260.613281 L 305.335938 260.609375 C 312.011719 260.257812 317.96875 257.308594 322.222656 252.804688 C 326.488281 248.308594 329.082031 242.226562 329.082031 235.617188 C 329.082031 235.167969 329.070312 234.71875 329.046875 234.269531 L 329.035156 234.058594 L 329.046875 234.261719 L 325.878906 234.429688 L 322.71875 234.59375 C 322.738281 234.9375 322.742188 235.285156 322.742188 235.617188 C 322.742188 240.5625 320.8125 245.082031 317.621094 248.457031 C 314.425781 251.832031 310.007812 254.019531 305 254.285156 L 305.167969 257.449219 L 305.199219 254.28125 L 156.519531 252.714844 L 155.785156 254.90625 C 154.695312 258.195312 152.835938 261.90625 150.402344 265.816406 C 146.148438 272.664062 140.140625 280.125 133.539062 287.402344 C 123.628906 298.324219 112.386719 308.847656 103.632812 316.625 C 99.261719 320.511719 95.507812 323.714844 92.847656 325.941406 C 91.519531 327.054688 90.46875 327.925781 89.746094 328.511719 C 89.386719 328.808594 89.113281 329.035156 88.925781 329.183594 C 88.832031 329.257812 88.761719 329.316406 88.714844 329.351562 L 88.652344 329.410156 L 90.632812 331.875 L 93.160156 333.792969 C 93.210938 333.71875 101.210938 323.21875 109.679688 308.289062 C 113.917969 300.824219 118.269531 292.246094 121.808594 283.285156 C 125.339844 274.316406 128.0625 264.964844 128.980469 255.875 L 129.324219 252.429688 L 85.847656 251.976562 L 85.746094 251.980469 C 85.402344 252 85.058594 252.011719 84.722656 252.011719 C 79.777344 252.011719 75.246094 250.078125 71.871094 246.894531 C 68.492188 243.699219 66.296875 239.292969 66.027344 234.285156 L 59.285156 115.773438 L 59.285156 115.769531 C 59.265625 115.449219 59.257812 115.121094 59.257812 114.785156 C 59.257812 112.339844 59.746094 110.097656 60.625 108.042969 C 61.941406 104.960938 64.171875 102.292969 67.058594 100.21875 C 69.945312 98.144531 73.488281 96.6875 77.34375 96.058594 L 77.355469 96.058594 L 294.878906 57.746094 L 294.328125 54.632812 L 294.5 57.789062 C 294.835938 57.777344 295.175781 57.765625 295.515625 57.765625 C 300.460938 57.765625 304.992188 59.695312 308.375 62.882812 C 311.753906 66.070312 313.945312 70.484375 314.214844 75.484375 L 314.214844 75.488281 L 322.71875 234.597656 L 322.71875 234.59375 L 325.878906 234.429688 "/>
</g>
<path style=" stroke:none;fill-rule:nonzero;fill:rgb(90.589905%,90.19928%,90.19928%);fill-opacity:1;" d="M 139.394531 243.101562 L 99.480469 242.679688 C 87.394531 243.324219 77.078125 234.0625 76.425781 221.992188 L 69.917969 107.628906 C 69.652344 102.476562 71.9375 97.304688 76.804688 94.875 C 62.195312 97.761719 57.429688 107.792969 57.9375 117.21875 L 64.324219 229.832031 C 64.742188 248.253906 75.714844 254.027344 89.28125 253.6875 L 127.632812 253.429688 C 124.160156 288.125 99.9375 321.625 99.9375 321.625 C 99.9375 321.625 132.808594 294.574219 139.394531 243.101562 "/>
<path style=" stroke:none;fill-rule:nonzero;fill:rgb(90.589905%,90.19928%,90.19928%);fill-opacity:1;" d="M 315.082031 244.988281 L 163.707031 253.84375 L 304.101562 255.324219 C 312.261719 254.886719 319.125 250.039062 322.535156 243.230469 C 320.230469 244.222656 317.726562 244.847656 315.082031 244.988281 "/>
</g>
</svg>
